<?xml version="1.0" encoding="UTF-8"?>
<svg version="1.1" xmlns="http://www.w3.org/2000/svg" width="260" height="260">
<path d="M0 0 C2.4375 0.359375 2.4375 0.359375 5.4375 2.359375 C7.64586886 2.39911429 9.85654136 2.34491323 12.0625 2.234375 C17.59541838 2.1550906 21.22180335 2.63640658 26.0703125 5.20703125 C30.10432146 7.17078149 34.42002424 8.26652539 38.71484375 9.52734375 C41.4375 10.359375 41.4375 10.359375 43.4375 11.359375 C43.86074766 20.83541992 44.06912582 28.75778419 39.4375 37.359375 C31.87089254 36.47660413 31.87089254 36.47660413 29.53125 35.84375 C23.32190627 34.40726003 16.52364205 34.42585835 10.75 37.234375 C7.41715513 38.97393224 7.41715513 38.97393224 6.4375 41.359375 C6.14117781 43.27226678 5.87546284 45.18994014 5.625 47.109375 C3.91133171 58.52966074 0.19864086 69.34524711 -3.54394531 80.23120117 C-4.80370357 83.92219431 -5.92776199 87.49741481 -6.5625 91.359375 C-6.03930176 91.18809082 -5.51610352 91.01680664 -4.97705078 90.84033203 C27.57077401 80.23453918 27.57077401 80.23453918 40.4375 86.359375 C43.4375 89.67963644 43.4375 89.67963644 43.4375 92.359375 C45.4175 92.689375 47.3975 93.019375 49.4375 93.359375 C49.125 95.234375 49.125 95.234375 48.4375 97.359375 C47.4475 98.019375 46.4575 98.679375 45.4375 99.359375 C46.675 99.58625 47.9125 99.813125 49.1875 100.046875 C52.50679034 100.86492705 53.40648432 101.32835932 55.9375 103.859375 C57.4375 106.359375 57.4375 106.359375 57.4375 108.359375 C55.9525 107.864375 55.9525 107.864375 54.4375 107.359375 C54.4375 106.699375 54.4375 106.039375 54.4375 105.359375 C53.4475 105.854375 53.4475 105.854375 52.4375 106.359375 C51.78536708 108.38400755 51.78536708 108.38400755 51.4375 110.359375 C49.4575 110.359375 47.4775 110.359375 45.4375 110.359375 C45.4375 111.349375 45.4375 112.339375 45.4375 113.359375 C47.4175 114.019375 49.3975 114.679375 51.4375 115.359375 C51.4375 115.689375 51.4375 116.019375 51.4375 116.359375 C48.1375 116.359375 44.8375 116.359375 41.4375 116.359375 C41.4375 115.699375 41.4375 115.039375 41.4375 114.359375 C40.7775 114.359375 40.1175 114.359375 39.4375 114.359375 C39.4375 113.699375 39.4375 113.039375 39.4375 112.359375 C32.38098748 112.20962261 32.38098748 112.20962261 25.4375 113.359375 C27.4175 114.349375 29.3975 115.339375 31.4375 116.359375 C26.91657032 117.81544019 23.92101204 116.62970341 19.4375 115.359375 C18.7775 117.669375 18.1175 119.979375 17.4375 122.359375 C16.4475 122.359375 15.4575 122.359375 14.4375 122.359375 C13.09768514 122.6656184 11.76238113 122.99389055 10.4375 123.359375 C10.4375 124.019375 10.4375 124.679375 10.4375 125.359375 C9.85484375 125.21757812 9.2721875 125.07578125 8.671875 124.9296875 C1.44939234 123.63509155 -2.78939128 125.44520654 -9.09375 129.01171875 C-11.5625 130.359375 -11.5625 130.359375 -13.5625 130.359375 C-19.37532778 151.77182139 -19.37532778 151.77182139 -17.8515625 173.3046875 C-17.45740103 176.10642982 -18.55682336 177.95909403 -19.72998047 180.45947266 C-21.34881451 184.15383234 -22.14769638 188.11274107 -23.11132812 192.01757812 C-23.95668299 195.34807259 -24.85689311 198.36508735 -26.5625 201.359375 C-28.68810437 201.05101268 -30.81297065 200.73755886 -32.9375 200.421875 C-34.12085937 200.24785156 -35.30421875 200.07382813 -36.5234375 199.89453125 C-39.5625 199.359375 -39.5625 199.359375 -41.5625 198.359375 C-41.68828609 193.93441379 -41.77783803 189.51046241 -41.8371582 185.08422852 C-41.86194483 183.58599679 -41.89578586 182.08788109 -41.93969727 180.59008789 C-42.22114115 170.72630763 -41.18068259 162.93576259 -37.71801758 153.68334961 C-36.21978968 149.37353071 -35.78835743 145.45231343 -35.75 140.921875 C-35.72486328 140.17873047 -35.69972656 139.43558594 -35.67382812 138.66992188 C-35.61674262 136.90027115 -35.58633662 135.12978576 -35.5625 133.359375 C-36.14257812 133.47539062 -36.72265625 133.59140625 -37.3203125 133.7109375 C-40.00781671 134.02137528 -41.93655824 134.05535631 -44.5625 133.359375 C-48.4075619 129.42109947 -50.22287292 124.92688458 -51.375 119.609375 C-50.20505698 114.92960293 -47.5473104 112.90901224 -43.5625 110.359375 C-42.510625 109.988125 -41.45875 109.616875 -40.375 109.234375 C-35.06917597 105.69715898 -34.35781454 99.31127208 -33.15332031 93.32617188 C-31.55390239 84.67746757 -30.50465359 75.9587095 -29.49169922 67.22558594 C-27.69010097 51.91559923 -24.75665697 38.84878356 -17.50390625 25.15625 C-15.75594992 21.82952142 -14.38098232 18.44378711 -13.0625 14.921875 C-10.72793811 9.15645358 -6.75783829 0.94774561 0 0 Z M14.4375 117.359375 C15.4375 119.359375 15.4375 119.359375 15.4375 119.359375 Z M-39.5625 125.359375 C-39.2325 126.349375 -38.9025 127.339375 -38.5625 128.359375 C-37.5725 128.029375 -36.5825 127.699375 -35.5625 127.359375 C-35.8925 126.699375 -36.2225 126.039375 -36.5625 125.359375 C-37.5525 125.359375 -38.5425 125.359375 -39.5625 125.359375 Z " fill="#B9BAB9" transform="translate(126.5625,37.640625)"/>
<path d="M0 0 C0.42324766 9.47604492 0.63162582 17.39840919 -4 26 C-11.56660746 25.11722913 -11.56660746 25.11722913 -13.90625 24.484375 C-20.11559373 23.04788503 -26.91385795 23.06648335 -32.6875 25.875 C-36.02034487 27.61455724 -36.02034487 27.61455724 -37 30 C-37.29632219 31.91289178 -37.56203716 33.83056514 -37.8125 35.75 C-39.52616829 47.17028574 -43.23885914 57.98587211 -46.98144531 68.87182617 C-48.24120357 72.56281931 -49.36526199 76.13803981 -50 80 C-49.47680176 79.82871582 -48.95360352 79.65743164 -48.41455078 79.48095703 C-15.86672599 68.87516418 -15.86672599 68.87516418 -3 75 C0 78.32026144 0 78.32026144 0 81 C1.98 81.33 3.96 81.66 6 82 C5.6875 83.875 5.6875 83.875 5 86 C4.01 86.66 3.02 87.32 2 88 C3.2375 88.226875 4.475 88.45375 5.75 88.6875 C9.06929034 89.50555205 9.96898432 89.96898432 12.5 92.5 C14 95 14 95 14 97 C12.515 96.505 12.515 96.505 11 96 C10.5978125 95.01 10.5978125 95.01 10.1875 94 C9.795625 93.34 9.40375 92.68 9 92 C2.65990635 90.55708213 -3.78272485 90.7779666 -10.25 90.75 C-11.42691406 90.729375 -12.60382813 90.70875 -13.81640625 90.6875 C-21.15252309 90.65485877 -27.10770676 91.57777879 -34 94 C-36.71604203 94.76179419 -39.45019542 95.44407846 -42.1875 96.125 C-43.1765332 96.37830078 -43.1765332 96.37830078 -44.18554688 96.63671875 C-48.44989571 97.70385629 -52.64736749 98.4467471 -57 99 C-57.08150744 96.93816367 -57.1394194 94.87538651 -57.1875 92.8125 C-57.22230469 91.66394531 -57.25710937 90.51539063 -57.29296875 89.33203125 C-56.97173076 85.67848447 -56.04070629 83.98689842 -54 81 C-52.7103368 77.20265836 -51.91214006 73.5971775 -51.5 69.625 C-51.335 68.42875 -51.17 67.2325 -51 66 C-50.01 65.505 -50.01 65.505 -49 65 C-48.08514427 62.19521805 -48.08514427 62.19521805 -47.375 58.9375 C-46.98441406 57.28041016 -46.98441406 57.28041016 -46.5859375 55.58984375 C-46.39257812 54.73519531 -46.19921875 53.88054687 -46 53 C-46.66 53 -47.32 53 -48 53 C-49.0179303 56.32812673 -50.01414316 59.66223358 -51 63 C-51.29777344 64.00417969 -51.59554687 65.00835937 -51.90234375 66.04296875 C-52.18207031 67.01878906 -52.46179688 67.99460937 -52.75 69 C-53.01296875 69.9075 -53.2759375 70.815 -53.546875 71.75 C-54.24464815 74.02319864 -54.24464815 74.02319864 -53 76 C-53.9375 78.625 -53.9375 78.625 -55 81 C-55.99 80.67 -56.98 80.34 -58 80 C-58 76.37 -58 72.74 -58 69 C-58.33 69 -58.66 69 -59 69 C-59 67.35 -59 65.7 -59 64 C-57.68 64 -56.36 64 -55 64 C-53.49069817 60.6136749 -53.49069817 60.6136749 -53 57 C-54.29352333 55.30225062 -55.62517293 53.63260714 -57 52 C-58.67226118 59.98268072 -60.28621973 67.86290495 -61 76 C-61.33 76 -61.66 76 -62 76 C-62.33 70.06 -62.66 64.12 -63 58 C-63.06058594 59.94003906 -63.12117188 61.88007812 -63.18359375 63.87890625 C-63.26802906 66.44011077 -63.35267556 69.00130834 -63.4375 71.5625 C-63.47681641 72.83931641 -63.51613281 74.11613281 -63.55664062 75.43164062 C-63.59853516 76.67236328 -63.64042969 77.91308594 -63.68359375 79.19140625 C-63.72025146 80.32779541 -63.75690918 81.46418457 -63.79467773 82.63500977 C-64.00804301 86.13181545 -64.45954277 89.53991975 -65 93 C-66.485 93.495 -66.485 93.495 -68 94 C-67.76004864 89.80432311 -67.51141358 85.60926919 -67.25537109 81.41455078 C-67.16975919 79.99313671 -67.08635526 78.57158759 -67.00537109 77.14990234 C-66.56084271 69.37339962 -65.94764647 61.72217567 -64.54882812 54.046875 C-63.92419886 50.57918228 -63.40379049 47.1025015 -62.88671875 43.6171875 C-62.4871599 41.03643035 -62.08741814 38.4557015 -61.6875 35.875 C-61.49994141 34.58207031 -61.31238281 33.28914063 -61.11914062 31.95703125 C-59.88756068 24.17154515 -58.07041264 17.78037464 -54 11 C-52.77704351 14.66886948 -53.58628943 15.55408047 -55 19 C-54.67 19.66 -54.34 20.32 -54 21 C-54 21.99 -54 22.98 -54 24 C-53.66226563 23.36191406 -53.32453125 22.72382812 -52.9765625 22.06640625 C-52.53054687 21.24011719 -52.08453125 20.41382812 -51.625 19.5625 C-51.18414062 18.73878906 -50.74328125 17.91507813 -50.2890625 17.06640625 C-49 15 -49 15 -47 14 C-47.27585937 14.68449219 -47.55171875 15.36898437 -47.8359375 16.07421875 C-49.12376632 19.31107709 -50.37664963 22.56021876 -51.625 25.8125 C-52.07101563 26.97394531 -52.51703125 28.13539062 -52.9765625 29.33203125 C-53.31429687 30.21246094 -53.65203125 31.09289062 -54 32 C-53.34 31.34 -52.68 30.68 -52 30 C-51.505 30.495 -51.505 30.495 -51 31 C-50.81824219 30.25234375 -50.63648437 29.5046875 -50.44921875 28.734375 C-50.19785156 27.74953125 -49.94648437 26.7646875 -49.6875 25.75 C-49.32205078 24.28820312 -49.32205078 24.28820312 -48.94921875 22.796875 C-48.00347644 20.01024335 -46.89291287 18.22695632 -45 16 C-45.31127516 17.58357459 -45.62407289 19.16684993 -45.9375 20.75 C-46.19853516 22.07257813 -46.19853516 22.07257813 -46.46484375 23.421875 C-46.92368488 25.63235053 -47.43336074 27.81512068 -48 30 C-47.34 28.35 -46.68 26.7 -46 25 C-45.08941469 28.07322544 -44.91113816 30.80097361 -45 34 C-43.515 33.505 -43.515 33.505 -42 33 C-41.67 33.66 -41.34 34.32 -41 35 C-41 33.35 -41 31.7 -41 30 C-40.01 29.505 -40.01 29.505 -39 29 C-38.53348793 26.87423218 -38.53348793 26.87423218 -38.375 24.4375 C-38.30023438 23.61121094 -38.22546875 22.78492187 -38.1484375 21.93359375 C-38.09945312 21.29550781 -38.05046875 20.65742187 -38 20 C-38.99 20 -39.98 20 -41 20 C-41 19.34 -41 18.68 -41 18 C-40.34 17.67 -39.68 17.34 -39 17 C-39.01160156 16.34773438 -39.02320313 15.69546875 -39.03515625 15.0234375 C-39.08470994 10.2238086 -38.99413751 5.72215315 -38 1 C-35.03 1 -32.06 1 -29 1 C-29 0.34 -29 -0.32 -29 -1 C-24.00088076 -0.52389341 -21.02167317 1.03162219 -17 4 C-17.598125 3.401875 -18.19625 2.80375 -18.8125 2.1875 C-20.54166667 0.45833333 -22.27083333 -1.27083333 -24 -3 C-15.08790771 -4.31357369 -8.34480268 -3.36720108 0 0 Z M-51 35 C-52.64555699 36.22809091 -52.64555699 36.22809091 -54 38 C-53.77242269 40.16299211 -53.77242269 40.16299211 -53 42 C-51.35444301 40.77190909 -51.35444301 40.77190909 -50 39 C-50.22757731 36.83700789 -50.22757731 36.83700789 -51 35 Z M-55 42 C-54 45 -54 45 -54 45 Z " fill="#717171" transform="translate(170,49)"/>
<path d="M0 0 C2.4375 0.359375 2.4375 0.359375 5.4375 2.359375 C7.64586886 2.39911429 9.85654136 2.34491323 12.0625 2.234375 C18.47392123 2.11465967 22.93934786 3.10121077 28.4375 6.359375 C28.4375 7.019375 28.4375 7.679375 28.4375 8.359375 C25.7975 8.689375 23.1575 9.019375 20.4375 9.359375 C22.7475 11.009375 25.0575 12.659375 27.4375 14.359375 C27.1075 15.019375 26.7775 15.679375 26.4375 16.359375 C25.64085937 15.83537109 25.64085937 15.83537109 24.828125 15.30078125 C24.12171875 14.84574219 23.4153125 14.39070313 22.6875 13.921875 C21.99140625 13.46941406 21.2953125 13.01695313 20.578125 12.55078125 C18.50792986 11.3985741 16.75053676 10.81260518 14.4375 10.359375 C14.4375 11.019375 14.4375 11.679375 14.4375 12.359375 C11.7975 12.689375 9.1575 13.019375 6.4375 13.359375 C6.34662109 14.46345703 6.34662109 14.46345703 6.25390625 15.58984375 C6.17011719 16.56566406 6.08632812 17.54148437 6 18.546875 C5.91878906 19.50980469 5.83757812 20.47273438 5.75390625 21.46484375 C5.46083849 24.14587102 5.01046246 26.7256736 4.4375 29.359375 C3.7775 29.359375 3.1175 29.359375 2.4375 29.359375 C2.4375 30.019375 2.4375 30.679375 2.4375 31.359375 C3.4275 31.359375 4.4175 31.359375 5.4375 31.359375 C5.49149736 32.81730384 5.53029177 34.27580212 5.5625 35.734375 C5.58570313 36.54648438 5.60890625 37.35859375 5.6328125 38.1953125 C5.4375 40.359375 5.4375 40.359375 3.4375 42.359375 C3.03702556 44.68212677 2.6977896 47.01676857 2.4375 49.359375 C1.7775 48.039375 1.1175 46.719375 0.4375 45.359375 C-0.2225 45.359375 -0.8825 45.359375 -1.5625 45.359375 C-2.0575 46.349375 -2.0575 46.349375 -2.5625 47.359375 C-2.5625 44.389375 -2.5625 41.419375 -2.5625 38.359375 C-3.5525 40.999375 -4.5425 43.639375 -5.5625 46.359375 C-6.85315057 42.4874233 -5.78574098 39.91704899 -4.625 36.171875 C-4.42970703 35.51767578 -4.23441406 34.86347656 -4.03320312 34.18945312 C-3.55067437 32.57710093 -3.05759795 30.96791211 -2.5625 29.359375 C-4.47789047 34.32197757 -6.17211435 39.22564338 -7.5625 44.359375 C-8.2225 44.359375 -8.8825 44.359375 -9.5625 44.359375 C-10.2225 45.019375 -10.8825 45.679375 -11.5625 46.359375 C-10.24262492 39.04006771 -7.7886132 33.06629454 -4.5625 26.359375 C-6.8725 30.649375 -9.1825 34.939375 -11.5625 39.359375 C-12.67252992 36.02928525 -12.24766272 34.69954324 -11.5625 31.359375 C-12.0575 30.369375 -12.0575 30.369375 -12.5625 29.359375 C-12.0675 27.874375 -12.0675 27.874375 -11.5625 26.359375 C-13.9010438 30.61442129 -15.12453483 34.29784439 -15.87890625 39.0859375 C-16.18924805 41.00599609 -16.18924805 41.00599609 -16.50585938 42.96484375 C-16.71252201 44.30464397 -16.91890101 45.64448796 -17.125 46.984375 C-17.33318359 48.28761719 -17.54136719 49.59085938 -17.75585938 50.93359375 C-18.16943304 53.52393913 -18.57800712 56.11508796 -18.98144531 58.70703125 C-19.49991633 61.96599196 -20.06684271 65.21211182 -20.64453125 68.4609375 C-21.73897866 74.98153995 -22.2326436 81.51768549 -22.6875 88.109375 C-22.77386719 89.2953125 -22.86023438 90.48125 -22.94921875 91.703125 C-23.15862104 94.58822315 -23.36297083 97.47358017 -23.5625 100.359375 C-23.8925 100.359375 -24.2225 100.359375 -24.5625 100.359375 C-24.8925 102.669375 -25.2225 104.979375 -25.5625 107.359375 C-26.2225 107.359375 -26.8825 107.359375 -27.5625 107.359375 C-27.5625 108.349375 -27.5625 109.339375 -27.5625 110.359375 C-30.0375 111.349375 -30.0375 111.349375 -32.5625 112.359375 C-30.5825 112.689375 -28.6025 113.019375 -26.5625 113.359375 C-26.5625 114.019375 -26.5625 114.679375 -26.5625 115.359375 C-30.0275 116.349375 -30.0275 116.349375 -33.5625 117.359375 C-31.2525 117.359375 -28.9425 117.359375 -26.5625 117.359375 C-26.8925 118.679375 -27.2225 119.999375 -27.5625 121.359375 C-30.5325 121.359375 -33.5025 121.359375 -36.5625 121.359375 C-32.1075 122.349375 -32.1075 122.349375 -27.5625 123.359375 C-27.27236658 130.32257717 -27.84425375 135.02500025 -30.5625 141.359375 C-31.11985971 142.93725249 -31.66142773 144.52079224 -32.1875 146.109375 C-32.42726563 146.82609375 -32.66703125 147.5428125 -32.9140625 148.28125 C-34.32410853 152.25204669 -34.32410853 152.25204669 -34 156.296875 C-33.38205641 159.21003766 -34.22278702 160.7469347 -35.5625 163.359375 C-37.1875 165.171875 -37.1875 165.171875 -38.5625 166.359375 C-39.5525 166.029375 -40.5425 165.699375 -41.5625 165.359375 C-41.03849609 164.03099609 -41.03849609 164.03099609 -40.50390625 162.67578125 C-36.87235644 152.78932412 -35.70391605 143.86273071 -35.5625 133.359375 C-36.14257812 133.47539062 -36.72265625 133.59140625 -37.3203125 133.7109375 C-40.00781671 134.02137528 -41.93655824 134.05535631 -44.5625 133.359375 C-48.4075619 129.42109947 -50.22287292 124.92688458 -51.375 119.609375 C-50.20505698 114.92960293 -47.5473104 112.90901224 -43.5625 110.359375 C-42.510625 109.988125 -41.45875 109.616875 -40.375 109.234375 C-35.06917597 105.69715898 -34.35781454 99.31127208 -33.15332031 93.32617188 C-31.55390239 84.67746757 -30.50465359 75.9587095 -29.49169922 67.22558594 C-27.69010097 51.91559923 -24.75665697 38.84878356 -17.50390625 25.15625 C-15.75594992 21.82952142 -14.38098232 18.44378711 -13.0625 14.921875 C-10.72793811 9.15645358 -6.75783829 0.94774561 0 0 Z M-39.5625 125.359375 C-39.2325 126.349375 -38.9025 127.339375 -38.5625 128.359375 C-37.5725 128.029375 -36.5825 127.699375 -35.5625 127.359375 C-35.8925 126.699375 -36.2225 126.039375 -36.5625 125.359375 C-37.5525 125.359375 -38.5425 125.359375 -39.5625 125.359375 Z M-7.5625 46.359375 C-7.2325 47.679375 -6.9025 48.999375 -6.5625 50.359375 C-7.8825 51.349375 -9.2025 52.339375 -10.5625 53.359375 C-9.8125 48.609375 -9.8125 48.609375 -7.5625 46.359375 Z " fill="#8F8F8F" transform="translate(126.5625,37.640625)"/>
<path d="M0 0 C0 -0.66 0 -1.32 0 -2 C0.99 -1.67 1.98 -1.34 3 -1 C2.67 0.32 2.34 1.64 2 3 C0.02 3 -1.96 3 -4 3 C-4 3.99 -4 4.98 -4 6 C-2.02 6.66 -0.04 7.32 2 8 C2 8.33 2 8.66 2 9 C-1.3 9 -4.6 9 -8 9 C-8 8.34 -8 7.68 -8 7 C-8.66 7 -9.32 7 -10 7 C-10 6.34 -10 5.68 -10 5 C-17.05651252 4.85024761 -17.05651252 4.85024761 -24 6 C-22.02 6.99 -20.04 7.98 -18 9 C-22.52092968 10.45606519 -25.51648796 9.27032841 -30 8 C-30.66 10.31 -31.32 12.62 -32 15 C-32.99 15 -33.98 15 -35 15 C-36.33981486 15.3062434 -37.67511887 15.63451555 -39 16 C-39 16.66 -39 17.32 -39 18 C-39.87398437 17.78730469 -39.87398437 17.78730469 -40.765625 17.5703125 C-47.98810766 16.27571655 -52.22689128 18.08583154 -58.53125 21.65234375 C-61 23 -61 23 -63 23 C-68.81282778 44.41244639 -68.81282778 44.41244639 -67.2890625 65.9453125 C-66.89490103 68.74705482 -67.99432336 70.59971903 -69.16748047 73.10009766 C-70.78631451 76.79445734 -71.58519638 80.75336607 -72.54882812 84.65820312 C-73.39418299 87.98869759 -74.29439311 91.00571235 -76 94 C-78.12560437 93.69163768 -80.25047065 93.37818386 -82.375 93.0625 C-83.55835937 92.88847656 -84.74171875 92.71445313 -85.9609375 92.53515625 C-89 92 -89 92 -91 91 C-91 84.73 -91 78.46 -91 72 C-89.515 71.505 -89.515 71.505 -88 71 C-88.061875 69.205625 -88.061875 69.205625 -88.125 67.375 C-88.13851708 63.57670047 -87.42009753 60.55024382 -86 57 C-85.34 57.66 -84.68 58.32 -84 59 C-83.01 57.02 -82.02 55.04 -81 53 C-80.01 53.33 -79.02 53.66 -78 54 C-77.67 52.35 -77.34 50.7 -77 49 C-76.67 49 -76.34 49 -76 49 C-76.32729487 57.52603142 -77.53742361 65.79202476 -79 74.1875 C-79.17821289 75.21560791 -79.35642578 76.24371582 -79.54003906 77.30297852 C-80.86580656 84.73161312 -80.86580656 84.73161312 -82 87 C-81.01 86.505 -81.01 86.505 -80 86 C-77.97942114 79.46011116 -77.20625321 72.77725834 -76.375 66 C-76.2409375 64.93910156 -76.106875 63.87820312 -75.96875 62.78515625 C-75.64151041 60.1906138 -75.31870218 57.59560256 -75 55 C-73.68 55 -72.36 55 -71 55 C-71.495 52.525 -71.495 52.525 -72 50 C-72.66 50.66 -73.32 51.32 -74 52 C-73.59470682 44.09678309 -73.0688008 36.47062558 -71.4609375 28.7109375 C-70.769084 24.64190081 -70.65697341 20.55511599 -70.5390625 16.43359375 C-70.36117187 15.63050781 -70.18328125 14.82742187 -70 14 C-68.0390625 12.85546875 -68.0390625 12.85546875 -66 12 C-64.70768358 8.95800528 -64.70768358 8.95800528 -64 6 C-60.37 6 -56.74 6 -53 6 C-54.01219064 10.04876256 -54.34030699 10.34030699 -57 13 C-57 13.99 -57 14.98 -57 16 C-54.6568787 15.74438677 -52.32156597 15.40729228 -50 15 C-49.67 14.34 -49.34 13.68 -49 13 C-50.98 13 -52.96 13 -55 13 C-54.34 12.67 -53.68 12.34 -53 12 C-53 11.34 -53 10.68 -53 10 C-49.44239635 7.38411497 -46.35522853 6.50642192 -42 6 C-42 5.34 -42 4.68 -42 4 C-45.96 4 -49.92 4 -54 4 C-50.50228014 2.25114007 -48.95405433 1.69963287 -45.26171875 1.3671875 C-44.35873047 1.28339844 -43.45574219 1.19960937 -42.52539062 1.11328125 C-41.12063477 0.99533203 -41.12063477 0.99533203 -39.6875 0.875 C-38.76259766 0.78863281 -37.83769531 0.70226562 -36.88476562 0.61328125 C-31.90485236 0.16731887 -27.00457382 -0.08880106 -22 0 C-20.68 0 -19.36 0 -18 0 C-18 0.66 -18 1.32 -18 2 C-15.03 2 -12.06 2 -9 2 C-8.67 1.01 -8.34 0.02 -8 -1 C-4.71293093 -2.47351372 -2.99288606 -1.8171094 0 0 Z M-35 10 C-34 12 -34 12 -34 12 Z " fill="#8A8A8A" transform="translate(176,145)"/>
<path d="M0 0 C0.66 0.33 1.32 0.66 2 1 C1.3648723 6.76262204 -0.12246139 11.98526726 -1.875 17.5 C-5.37559618 28.84067955 -7.96033098 40.14777316 -9 52 C-8.34 52 -7.68 52 -7 52 C-6.67 51.34 -6.34 50.68 -6 50 C-6.33 59.9 -6.66 69.8 -7 80 C-7.66 80 -8.32 80 -9 80 C-9 80.99 -9 81.98 -9 83 C-11.475 83.99 -11.475 83.99 -14 85 C-12.02 85.33 -10.04 85.66 -8 86 C-8 86.66 -8 87.32 -8 88 C-11.465 88.99 -11.465 88.99 -15 90 C-12.69 90 -10.38 90 -8 90 C-8.33 91.32 -8.66 92.64 -9 94 C-11.97 94 -14.94 94 -18 94 C-13.545 94.99 -13.545 94.99 -9 96 C-8.70986658 102.96320217 -9.28175375 107.66562525 -12 114 C-12.55735971 115.57787749 -13.09892773 117.16141724 -13.625 118.75 C-13.98464844 119.82507813 -13.98464844 119.82507813 -14.3515625 120.921875 C-15.76160853 124.89267169 -15.76160853 124.89267169 -15.4375 128.9375 C-14.81955641 131.85066266 -15.66028702 133.3875597 -17 136 C-18.625 137.8125 -18.625 137.8125 -20 139 C-20.99 138.67 -21.98 138.34 -23 138 C-22.47599609 136.67162109 -22.47599609 136.67162109 -21.94140625 135.31640625 C-18.30985644 125.42994912 -17.14141605 116.50335571 -17 106 C-17.58007812 106.11601562 -18.16015625 106.23203125 -18.7578125 106.3515625 C-21.44531671 106.66200028 -23.37405824 106.69598131 -26 106 C-29.8450619 102.06172447 -31.66037292 97.56750958 -32.8125 92.25 C-31.64255698 87.57022793 -28.9848104 85.54963724 -25 83 C-23.948125 82.62875 -22.89625 82.2575 -21.8125 81.875 C-16.50667597 78.33778398 -15.79531454 71.95189708 -14.59082031 65.96679688 C-13.1811883 58.34434229 -12.18274136 50.6666304 -11.2890625 42.96875 C-9.52634504 27.79529718 -7.74413334 13.48875685 0 0 Z M-21 98 C-20.67 98.99 -20.34 99.98 -20 101 C-19.01 100.67 -18.02 100.34 -17 100 C-17.33 99.34 -17.66 98.68 -18 98 C-18.99 98 -19.98 98 -21 98 Z " fill="#848484" transform="translate(108,65)"/>
<path d="M0 0 C3 3.32026144 3 3.32026144 3 6 C-1.32448133 6.73832608 -5.65535464 7.39174965 -10 8 C-10 8.66 -10 9.32 -10 10 C-16.625 14 -16.625 14 -20 14 C-20 13.34 -20 12.68 -20 12 C-21.134375 12.33 -22.26875 12.66 -23.4375 13 C-27.99795849 14.15847067 -32.32161006 14.19493291 -37 14 C-37 14.66 -37 15.32 -37 16 C-41.96993194 18.43425238 -45.34605369 19.34615998 -51 19 C-50.34 15.04 -49.68 11.08 -49 7 C-48.34 7 -47.68 7 -47 7 C-47 6.34 -47 5.68 -47 5 C-12.92856982 -6.1542748 -12.92856982 -6.1542748 0 0 Z " fill="#707070" transform="translate(167,124)"/>
<path d="M0 0 C1.22295649 3.66886948 0.41371057 4.55408047 -1 8 C-0.67 8.66 -0.34 9.32 0 10 C0 10.99 0 11.98 0 13 C0.33773437 12.36191406 0.67546875 11.72382812 1.0234375 11.06640625 C1.46945313 10.24011719 1.91546875 9.41382812 2.375 8.5625 C2.81585938 7.73878906 3.25671875 6.91507812 3.7109375 6.06640625 C5 4 5 4 7 3 C6.72414063 3.68449219 6.44828125 4.36898437 6.1640625 5.07421875 C4.87623368 8.31107709 3.62335037 11.56021876 2.375 14.8125 C1.92898437 15.97394531 1.48296875 17.13539062 1.0234375 18.33203125 C0.68570313 19.21246094 0.34796875 20.09289062 0 21 C0.66 20.34 1.32 19.68 2 19 C2.33 19.33 2.66 19.66 3 20 C3.18175781 19.25234375 3.36351563 18.5046875 3.55078125 17.734375 C3.80214844 16.74953125 4.05351563 15.7646875 4.3125 14.75 C4.55613281 13.77546875 4.79976562 12.8009375 5.05078125 11.796875 C5.99652356 9.01024335 7.10708713 7.22695632 9 5 C8.68872484 6.58357459 8.37592711 8.16684993 8.0625 9.75 C7.88847656 10.63171875 7.71445313 11.5134375 7.53515625 12.421875 C7.07631512 14.63235053 6.56663926 16.81512068 6 19 C6.66 17.35 7.32 15.7 8 14 C9.5246016 19.42217183 10.00309481 24.8114295 7.625 30 C6 32 6 32 4 33 C4.13019531 33.76441406 4.26039062 34.52882812 4.39453125 35.31640625 C5.40096524 43.13273008 4.60148841 48.76988757 1.74145508 55.97290039 C0.37765716 59.45295263 -0.22319102 61.44235292 1 65 C0.0625 67.75 0.0625 67.75 -1 70 C-1.99 69.67 -2.98 69.34 -4 69 C-4 65.37 -4 61.74 -4 58 C-4.33 58 -4.66 58 -5 58 C-5 56.35 -5 54.7 -5 53 C-3.68 53 -2.36 53 -1 53 C0.50930183 49.6136749 0.50930183 49.6136749 1 46 C-0.29352333 44.30225062 -1.62517293 42.63260714 -3 41 C-4.67226118 48.98268072 -6.28621973 56.86290495 -7 65 C-7.33 65 -7.66 65 -8 65 C-8.33 59.06 -8.66 53.12 -9 47 C-9.06058594 48.94003906 -9.12117188 50.88007812 -9.18359375 52.87890625 C-9.26802906 55.44011077 -9.35267556 58.00130834 -9.4375 60.5625 C-9.47681641 61.83931641 -9.51613281 63.11613281 -9.55664062 64.43164062 C-9.59853516 65.67236328 -9.64042969 66.91308594 -9.68359375 68.19140625 C-9.72025146 69.32779541 -9.75690918 70.46418457 -9.79467773 71.63500977 C-10.00804301 75.13181545 -10.45954277 78.53991975 -11 82 C-12.485 82.495 -12.485 82.495 -14 83 C-13.76004864 78.80432311 -13.51141358 74.60926919 -13.25537109 70.41455078 C-13.16975919 68.99313671 -13.08635526 67.57158759 -13.00537109 66.14990234 C-12.56084271 58.37339962 -11.94764647 50.72217567 -10.54882812 43.046875 C-9.92419886 39.57918228 -9.40379049 36.1025015 -8.88671875 32.6171875 C-8.4871599 30.03643035 -8.08741814 27.4557015 -7.6875 24.875 C-7.49994141 23.58207031 -7.31238281 22.28914063 -7.11914062 20.95703125 C-5.88756068 13.17154515 -4.07041264 6.78037464 0 0 Z M3 24 C1.35444301 25.22809091 1.35444301 25.22809091 0 27 C0.22757731 29.16299211 0.22757731 29.16299211 1 31 C2.64555699 29.77190909 2.64555699 29.77190909 4 28 C3.77242269 25.83700789 3.77242269 25.83700789 3 24 Z M-1 31 C0 34 0 34 0 34 Z " fill="#8C8C8C" transform="translate(116,60)"/>
<path d="M0 0 C0.99 0 1.98 0 3 0 C3.05392397 2.77109307 3.09363455 5.54113818 3.125 8.3125 C3.14175781 9.09818359 3.15851563 9.88386719 3.17578125 10.69335938 C3.18222656 11.45068359 3.18867187 12.20800781 3.1953125 12.98828125 C3.20578613 13.68477783 3.21625977 14.38127441 3.22705078 15.09887695 C3 17 3 17 1 20 C1.23507803 22.08211974 1.47855073 24.16378708 1.7734375 26.23828125 C2.2055009 31.50498514 1.52683446 36.75597079 1 42 C1.99 41.505 1.99 41.505 3 41 C3 42.98 3 44.96 3 47 C1.68 47 0.36 47 -1 47 C-1.04898438 47.77601563 -1.09796875 48.55203125 -1.1484375 49.3515625 C-2.68608816 71.5679634 -2.68608816 71.5679634 -6 79 C-6.66 79 -7.32 79 -8 79 C-6.86128755 70.54673464 -5.55262753 62.15568236 -3.96557617 53.77563477 C-3.29511709 50.13618453 -2.84120767 46.70274848 -3 43 C-3.33 43.99 -3.66 44.98 -4 46 C-4.99 46 -5.98 46 -7 46 C-7.99 48.97 -8.98 51.94 -10 55 C-10.66 53.68 -11.32 52.36 -12 51 C-12.66 54.96 -13.32 58.92 -14 63 C-15.485 63.495 -15.485 63.495 -17 64 C-17 59.71 -17 55.42 -17 51 C-16.01 51 -15.02 51 -14 51 C-13.67 50.01 -13.34 49.02 -13 48 C-12.01 47.505 -12.01 47.505 -11 47 C-10.14943055 43.44307323 -9.83090193 41.50729422 -11 38 C-10.32227566 36.4073478 -9.63559086 34.81786478 -8.90234375 33.25 C-7.06636965 28.67198666 -6.1104084 23.79601927 -5 19 C-4.67 19 -4.34 19 -4 19 C-4 22 -4 25 -4 28 C-2.83685707 19.73378031 -1.79060179 11.52961921 -1.24609375 3.1953125 C-1 1 -1 1 0 0 Z " fill="#AEAFAF" transform="translate(102,153)"/>
<path d="M0 0 C0 0.66 0 1.32 0 2 C-0.66 2 -1.32 2 -2 2 C-2.33 5.63 -2.66 9.26 -3 13 C1.81938524 13.23509196 5.46298506 12.45184478 10 11 C10 10.34 10 9.68 10 9 C10.58007812 8.93941406 11.16015625 8.87882813 11.7578125 8.81640625 C16.20269599 8.33964482 20.5918871 7.75260464 25 7 C25.66 7 26.32 7 27 7 C27 7.66 27 8.32 27 9 C27.55429688 8.71125 28.10859375 8.4225 28.6796875 8.125 C29.40414062 7.75375 30.12859375 7.3825 30.875 7 C31.59429687 6.62875 32.31359375 6.2575 33.0546875 5.875 C35 5 35 5 37 5 C37 4.34 37 3.68 37 3 C44.09053307 0.57566333 48.85271843 -0.56223302 56 2 C55.6875 3.875 55.6875 3.875 55 6 C54.01 6.66 53.02 7.32 52 8 C53.2375 8.226875 54.475 8.45375 55.75 8.6875 C59.06929034 9.50555205 59.96898432 9.96898432 62.5 12.5 C64 15 64 15 64 17 C62.515 16.505 62.515 16.505 61 16 C60.5978125 15.01 60.5978125 15.01 60.1875 14 C59.5996875 13.01 59.5996875 13.01 59 12 C52.65990635 10.55708213 46.21727515 10.7779666 39.75 10.75 C38.57308594 10.729375 37.39617187 10.70875 36.18359375 10.6875 C28.84747691 10.65485877 22.89229324 11.57777879 16 14 C13.28395797 14.76179419 10.54980458 15.44407846 7.8125 16.125 C7.15314453 16.29386719 6.49378906 16.46273437 5.81445312 16.63671875 C1.55010429 17.70385629 -2.64736749 18.4467471 -7 19 C-7.08150744 16.93816367 -7.1394194 14.87538651 -7.1875 12.8125 C-7.22230469 11.66394531 -7.25710937 10.51539063 -7.29296875 9.33203125 C-6.97323533 5.6955965 -6.18158273 3.8894086 -4 1 C-2 0 -2 0 0 0 Z " fill="#858585" transform="translate(120,129)"/>
<path d="M0 0 C0.66 0.33 1.32 0.66 2 1 C1.3648723 6.76262204 -0.12246139 11.98526726 -1.875 17.5 C-5.37559618 28.84067955 -7.96033098 40.14777316 -9 52 C-8.34 52 -7.68 52 -7 52 C-6.67 51.34 -6.34 50.68 -6 50 C-6.08129882 53.70920229 -6.19410601 57.41681099 -6.3125 61.125 C-6.34633789 62.69507812 -6.34633789 62.69507812 -6.38085938 64.296875 C-6.78060963 75.78060963 -6.78060963 75.78060963 -11 80 C-13.33297433 80.04092937 -15.66705225 80.04241723 -18 80 C-17.74025391 78.9174292 -17.48050781 77.8348584 -17.21289062 76.71948242 C-14.43322649 64.85608223 -12.6604991 53.03997639 -11.21826172 40.95092773 C-9.48423734 26.58053527 -7.3197784 12.74961401 0 0 Z " fill="#838383" transform="translate(108,65)"/>
<path d="M0 0 C0 -0.66 0 -1.32 0 -2 C0.99 -1.67 1.98 -1.34 3 -1 C2.67 0.32 2.34 1.64 2 3 C0.02 3 -1.96 3 -4 3 C-4 3.99 -4 4.98 -4 6 C-2.02 6.66 -0.04 7.32 2 8 C2 8.33 2 8.66 2 9 C-1.3 9 -4.6 9 -8 9 C-8 8.34 -8 7.68 -8 7 C-8.66 7 -9.32 7 -10 7 C-10 6.34 -10 5.68 -10 5 C-17.05651252 4.85024761 -17.05651252 4.85024761 -24 6 C-22.02 6.99 -20.04 7.98 -18 9 C-22.52092968 10.45606519 -25.51648796 9.27032841 -30 8 C-30.66 10.31 -31.32 12.62 -32 15 C-32.99 15 -33.98 15 -35 15 C-36.33981486 15.3062434 -37.67511887 15.63451555 -39 16 C-39 16.66 -39 17.32 -39 18 C-40.65 17.67 -42.3 17.34 -44 17 C-44 14 -44 14 -42.5 12.3125 C-42.005 11.879375 -41.51 11.44625 -41 11 C-41.66 10.34 -42.32 9.68 -43 9 C-41.7934375 8.2884375 -41.7934375 8.2884375 -40.5625 7.5625 C-38.15246512 6.23099846 -38.15246512 6.23099846 -37 5 C-42.72040011 4.1679418 -48.22240116 3.87963336 -54 4 C-51.03559586 2.32899185 -48.6420716 1.67154301 -45.26171875 1.3671875 C-44.35873047 1.28339844 -43.45574219 1.19960937 -42.52539062 1.11328125 C-41.12063477 0.99533203 -41.12063477 0.99533203 -39.6875 0.875 C-38.76259766 0.78863281 -37.83769531 0.70226562 -36.88476562 0.61328125 C-31.90485236 0.16731887 -27.00457382 -0.08880106 -22 0 C-20.68 0 -19.36 0 -18 0 C-18 0.66 -18 1.32 -18 2 C-15.03 2 -12.06 2 -9 2 C-8.67 1.01 -8.34 0.02 -8 -1 C-4.71293093 -2.47351372 -2.99288606 -1.8171094 0 0 Z M-35 10 C-34 12 -34 12 -34 12 Z " fill="#8F8F8F" transform="translate(176,145)"/>
<path d="M0 0 C1.32 0.99 2.64 1.98 4 3 C4.66 2.34 5.32 1.68 6 1 C5.53395685 5.75364013 4.87250217 9.13317016 2 13 C1.01 13.66 0.02 14.32 -1 15 C-0.67 15 -0.34 15 0 15 C0 18.96 0 22.92 0 27 C0.66 27.33 1.32 27.66 2 28 C2.93423645 24.98968256 3.04449911 24.13349732 2 21 C2.52905273 18.9152832 2.52905273 18.9152832 3.43359375 16.55078125 C3.75263672 15.70322266 4.07167969 14.85566406 4.40039062 13.98242188 C4.74263672 13.10134766 5.08488281 12.22027344 5.4375 11.3125 C5.77587891 10.41982422 6.11425781 9.52714844 6.46289062 8.60742188 C7.30037307 6.40165826 8.14632974 4.19953824 9 2 C9.66 2 10.32 2 11 2 C10.45144652 6.571279 9.58255197 10.67435795 8 15 C7.34 15 6.68 15 6 15 C6.061875 16.155 6.12375 17.31 6.1875 18.5 C6.1968332 23.76392409 4.58766926 28.29162303 1.9375 32.8125 C0.66052109 35.79211745 0.56856929 38.52384523 0.375 41.75 C0.30023438 42.92046875 0.22546875 44.0909375 0.1484375 45.296875 C0.09945312 46.18890625 0.05046875 47.0809375 0 48 C-1.485 48.495 -1.485 48.495 -3 49 C-2.505 46.03 -2.505 46.03 -2 43 C-2.66 43 -3.32 43 -4 43 C-4.33 44.32 -4.66 45.64 -5 47 C-5 41.72 -5 36.44 -5 31 C-5.66 31 -6.32 31 -7 31 C-7.02911003 27.10418244 -7.04683587 23.208393 -7.0625 19.3125 C-7.07087891 18.20970703 -7.07925781 17.10691406 -7.08789062 15.97070312 C-7.09111328 14.90400391 -7.09433594 13.83730469 -7.09765625 12.73828125 C-7.10289307 11.75899658 -7.10812988 10.77971191 -7.11352539 9.77075195 C-7.00308543 7.07530428 -6.60534166 4.62454361 -6 2 C-5.67 2 -5.34 2 -5 2 C-4.67 6.62 -4.34 11.24 -4 16 C-3.79503906 14.92878906 -3.59007813 13.85757813 -3.37890625 12.75390625 C-3.10697291 11.35673149 -2.83482648 9.95959819 -2.5625 8.5625 C-2.42779297 7.85544922 -2.29308594 7.14839844 -2.15429688 6.41992188 C-1.11328125 1.11328125 -1.11328125 1.11328125 0 0 Z " fill="#ACACAC" transform="translate(113,100)"/>
<path d="M0 0 C0.33 0 0.66 0 1 0 C0.67541302 8.4554908 -0.50398854 16.6708267 -1.9375 25 C-2.10733398 26.00297119 -2.27716797 27.00594238 -2.45214844 28.03930664 C-2.70593262 29.47391235 -2.70593262 29.47391235 -2.96484375 30.9375 C-3.1155835 31.79214844 -3.26632324 32.64679688 -3.42163086 33.52734375 C-4.03615489 36.15457016 -4.93895301 38.52283888 -6 41 C-6.66 41 -7.32 41 -8 41 C-10.29648649 38.4385343 -11 37.52032428 -11 34 C-11.99 34 -12.98 34 -14 34 C-14 30.37 -14 26.74 -14 23 C-13.01 22.67 -12.02 22.34 -11 22 C-11.061875 20.205625 -11.061875 20.205625 -11.125 18.375 C-11.13851708 14.57670047 -10.42009753 11.55024382 -9 8 C-8.34 8.66 -7.68 9.32 -7 10 C-6.01 8.02 -5.02 6.04 -4 4 C-3.01 4.33 -2.02 4.66 -1 5 C-0.67 3.35 -0.34 1.7 0 0 Z " fill="#909090" transform="translate(99,194)"/>
<path d="M0 0 C7.69479711 -0.51778074 13.21882953 0.2494267 20 4 C20 4.66 20 5.32 20 6 C17.36 6.33 14.72 6.66 12 7 C14.31 8.65 16.62 10.3 19 12 C18.67 12.66 18.34 13.32 18 14 C17.46890625 13.65066406 16.9378125 13.30132812 16.390625 12.94140625 C15.68421875 12.48636719 14.9778125 12.03132813 14.25 11.5625 C13.55390625 11.11003906 12.8578125 10.65757813 12.140625 10.19140625 C10.07042986 9.0391991 8.31303676 8.45323018 6 8 C6 8.66 6 9.32 6 10 C4.72125 10.0825 3.4425 10.165 2.125 10.25 C-0.06813438 10.47121058 -0.06813438 10.47121058 -2 11 C-3.18330183 12.86644906 -3.18330183 12.86644906 -4 15 C-7 16.6875 -7 16.6875 -10 18 C-10.66 18.33 -11.32 18.66 -12 19 C-10.70700306 16.11562221 -9.34058637 14.12780579 -7 12 C-7.86625 12.2165625 -7.86625 12.2165625 -8.75 12.4375 C-10.83333333 12.95833333 -12.91666667 13.47916667 -15 14 C-13.68 12.02 -12.36 10.04 -11 8 C-14.28788824 11.11016455 -16.83735988 14.01618925 -19 18 C-19.33 17.34 -19.66 16.68 -20 16 C-17.68542362 11.00712809 -14.23043291 6.49010715 -10 3 C-7.1875 2.1875 -7.1875 2.1875 -5 2 C-4.67 3.98 -4.34 5.96 -4 8 C-3.34 7.34 -2.68 6.68 -2 6 C0.1640625 6.0234375 0.1640625 6.0234375 2.625 6.375 C3.85089844 6.54128906 3.85089844 6.54128906 5.1015625 6.7109375 C6.04128906 6.85402344 6.04128906 6.85402344 7 7 C7 6.34 7 5.68 7 5 C4.03 5 1.06 5 -2 5 C-1.01 4.67 -0.02 4.34 1 4 C0.67 2.68 0.34 1.36 0 0 Z " fill="#A4A4A4" transform="translate(135,40)"/>
<path d="M0 0 C1.22295649 3.66886948 0.41371057 4.55408047 -1 8 C-0.67 8.66 -0.34 9.32 0 10 C0 10.99 0 11.98 0 13 C0.33773437 12.36191406 0.67546875 11.72382812 1.0234375 11.06640625 C1.46945313 10.24011719 1.91546875 9.41382812 2.375 8.5625 C2.81585938 7.73878906 3.25671875 6.91507812 3.7109375 6.06640625 C5 4 5 4 7 3 C6.72414063 3.68449219 6.44828125 4.36898437 6.1640625 5.07421875 C4.87623368 8.31107709 3.62335037 11.56021876 2.375 14.8125 C1.92898437 15.97394531 1.48296875 17.13539062 1.0234375 18.33203125 C0.68570313 19.21246094 0.34796875 20.09289062 0 21 C0.66 20.34 1.32 19.68 2 19 C2.33 19.33 2.66 19.66 3 20 C3.18175781 19.25234375 3.36351563 18.5046875 3.55078125 17.734375 C3.80214844 16.74953125 4.05351563 15.7646875 4.3125 14.75 C4.55613281 13.77546875 4.79976562 12.8009375 5.05078125 11.796875 C5.99652356 9.01024335 7.10708713 7.22695632 9 5 C6.29949239 21.70050761 6.29949239 21.70050761 1 27 C0.38943913 29.02213278 -0.14363995 31.06827978 -0.625 33.125 C-1.01558594 34.76855469 -1.01558594 34.76855469 -1.4140625 36.4453125 C-1.70410156 37.70988281 -1.70410156 37.70988281 -2 39 C-2.66 38.67 -3.32 38.34 -4 38 C-4.66 39.32 -5.32 40.64 -6 42 C-6.33 40.35 -6.66 38.7 -7 37 C-7.33 37 -7.66 37 -8 37 C-8.1152879 30.87760555 -7.81632284 25.10115246 -6.8125 19.0625 C-6.68447998 18.28342285 -6.55645996 17.5043457 -6.42456055 16.70166016 C-5.31179515 10.55233559 -3.3711244 5.30319175 0 0 Z " fill="#7C7C7C" transform="translate(116,60)"/>
<path d="M0 0 C0.33 0 0.66 0 1 0 C0.39481331 8.98224455 -0.84125063 17.71546052 -2.47265625 26.56347656 C-3.84000808 34.27523883 -4.58609145 41.94024329 -5.125 49.75 C-5.21136719 50.9359375 -5.29773438 52.121875 -5.38671875 53.34375 C-5.59612104 56.22884815 -5.80047083 59.11420517 -6 62 C-8 60 -8 60 -8.22705078 58.02880859 C-8.21657715 57.24328613 -8.20610352 56.45776367 -8.1953125 55.6484375 C-8.18886719 54.79765625 -8.18242188 53.946875 -8.17578125 53.0703125 C-8.15902344 52.18085938 -8.14226562 51.29140625 -8.125 50.375 C-8.11597656 49.4778125 -8.10695313 48.580625 -8.09765625 47.65625 C-8.0740497 45.43723414 -8.0411231 43.21874923 -8 41 C-8.66 41 -9.32 41 -10 41 C-10.18469818 34.60562178 -9.63686782 28.96910555 -8.1875 22.75 C-8.02185547 21.97398438 -7.85621094 21.19796875 -7.68554688 20.3984375 C-6.70190026 16.04812113 -5.45834635 12.77251555 -3 9 C-2.38739684 7.41429059 -1.82092453 5.80961635 -1.3125 4.1875 C-1.06113281 3.39730469 -0.80976562 2.60710937 -0.55078125 1.79296875 C-0.36902344 1.20128906 -0.18726562 0.60960938 0 0 Z " fill="#999999" transform="translate(109,76)"/>
<path d="M0 0 C0.33 0 0.66 0 1 0 C1 5.28 1 10.56 1 16 C1.99 16 2.98 16 4 16 C4 15.01 4 14.02 4 13 C5.32 13 6.64 13 8 13 C7.67 16.3 7.34 19.6 7 23 C6.34 23 5.68 23 5 23 C5.02320312 23.7734375 5.04640625 24.546875 5.0703125 25.34375 C5.17928906 31.63325438 4.85126093 36.98340199 3 43 C2.34 42.34 1.68 41.68 1 41 C1.3269756 38.38419521 1.82039068 36.35921863 3 34 C3.07078424 30.717381 2.99678053 27.44672211 2.9375 24.1640625 C2.98946187 21.53349301 3.21575953 19.48751273 4 17 C3.01 17.33 2.02 17.66 1 18 C0.9498877 18.6297876 0.89977539 19.2595752 0.84814453 19.90844727 C0.61439238 22.79377564 0.36978233 25.6780873 0.125 28.5625 C0.00705078 30.0484668 0.00705078 30.0484668 -0.11328125 31.56445312 C-0.57717809 36.93495121 -1.12131568 41.92755234 -3 47 C-3.99 47.495 -3.99 47.495 -5 48 C-4.78537109 46.78957031 -4.78537109 46.78957031 -4.56640625 45.5546875 C-3.90781951 41.42148798 -3.41314655 37.28250322 -2.9375 33.125 C-2.84662109 32.34125 -2.75574219 31.5575 -2.66210938 30.75 C-2.44007435 28.83348717 -2.21985161 26.91676453 -2 25 C-2.62648438 24.95101562 -3.25296875 24.90203125 -3.8984375 24.8515625 C-4.71570313 24.77679688 -5.53296875 24.70203125 -6.375 24.625 C-7.18710938 24.55539063 -7.99921875 24.48578125 -8.8359375 24.4140625 C-11 24 -11 24 -13 22 C-9.37 22.33 -5.74 22.66 -2 23 C-2 22.01 -2 21.02 -2 20 C-4.31 20 -6.62 20 -9 20 C-8.67 19.34 -8.34 18.68 -8 18 C-5.67843403 17.59270772 -3.3431213 17.25561323 -1 17 C-1 16.34 -1 15.68 -1 15 C-4.63 14.67 -8.26 14.34 -12 14 C-12 13.67 -12 13.34 -12 13 C-8.7 12.67 -5.4 12.34 -2 12 C-2 11.01 -2 10.02 -2 9 C-1.34 9 -0.68 9 0 9 C0 6.03 0 3.06 0 0 Z " fill="#D2D3D2" transform="translate(101,136)"/>
<path d="M0 0 C5.30202857 0.51727108 8.54629283 2.25925713 13 5 C13.66 5.33 14.32 5.66 15 6 C15.40729228 8.32156597 15.74438677 10.6568787 16 13 C16.99 13.33 17.98 13.66 19 14 C19.33 15.98 19.66 17.96 20 20 C18.02 19.67 16.04 19.34 14 19 C13.67 19.99 13.34 20.98 13 22 C12.48050781 21.09636719 11.96101563 20.19273438 11.42578125 19.26171875 C10.7219774 18.06994423 10.01751535 16.87855824 9.3125 15.6875 C8.97283203 15.09259766 8.63316406 14.49769531 8.28320312 13.88476562 C6.00933023 10.08081003 4.06609703 7.80715424 0 6 C-2.42529916 5.43914436 -2.42529916 5.43914436 -4.8125 5.3125 C-5.60269531 5.24675781 -6.39289063 5.18101563 -7.20703125 5.11328125 C-8.09455078 5.05720703 -8.09455078 5.05720703 -9 5 C-9 4.01 -9 3.02 -9 2 C-6.03 2 -3.06 2 0 2 C0 1.34 0 0.68 0 0 Z " fill="#747474" transform="translate(141,48)"/>
<path d="M0 0 C0.33 0 0.66 0 1 0 C1 3 1 6 1 9 C1.33 8.34 1.66 7.68 2 7 C2.99 7 3.98 7 5 7 C5.25229358 11.5412844 5.25229358 11.5412844 3.96875 13.875 C2.78575131 16.46996487 2.96377248 17.9536529 3.375 20.75 C3.54128906 21.94882813 3.54128906 21.94882813 3.7109375 23.171875 C3.80632812 23.77515625 3.90171875 24.3784375 4 25 C3.34 24.67 2.68 24.34 2 24 C1.67 24.99 1.34 25.98 1 27 C0.01 27 -0.98 27 -2 27 C-2.99 29.97 -3.98 32.94 -5 36 C-5.66 34.68 -6.32 33.36 -7 32 C-7.66 35.96 -8.32 39.92 -9 44 C-10.485 44.495 -10.485 44.495 -12 45 C-12 40.71 -12 36.42 -12 32 C-11.01 32 -10.02 32 -9 32 C-8.67 31.01 -8.34 30.02 -8 29 C-7.34 28.67 -6.68 28.34 -6 28 C-5.14943055 24.44307323 -4.83090193 22.50729422 -6 19 C-5.32227566 17.4073478 -4.63559086 15.81786478 -3.90234375 14.25 C-2.06636965 9.67198666 -1.1104084 4.79601927 0 0 Z " fill="#ABACAC" transform="translate(97,172)"/>
<path d="M0 0 C0 0.66 0 1.32 0 2 C-0.66 2 -1.32 2 -2 2 C-2.33 5.63 -2.66 9.26 -3 13 C1.81938524 13.23509196 5.46298506 12.45184478 10 11 C10 10.34 10 9.68 10 9 C10.60328125 8.93941406 11.2065625 8.87882813 11.828125 8.81640625 C12.62734375 8.73261719 13.4265625 8.64882812 14.25 8.5625 C15.03890625 8.48128906 15.8278125 8.40007812 16.640625 8.31640625 C18.82364639 8.02365007 20.8773182 7.57935581 23 7 C23.33 7.99 23.66 8.98 24 10 C24.66 10.33 25.32 10.66 26 11 C19.98778342 12.90772257 13.92595725 14.57818747 7.8125 16.125 C6.81573242 16.38071777 6.81573242 16.38071777 5.79882812 16.64160156 C1.53937798 17.70540664 -2.65282 18.44744016 -7 19 C-7.08150744 16.93816367 -7.1394194 14.87538651 -7.1875 12.8125 C-7.22230469 11.66394531 -7.25710937 10.51539063 -7.29296875 9.33203125 C-6.97323533 5.6955965 -6.18158273 3.8894086 -4 1 C-2 0 -2 0 0 0 Z " fill="#8E8E8E" transform="translate(120,129)"/>
<path d="M0 0 C0.66 0.33 1.32 0.66 2 1 C1.3846293 6.53833627 -0.02207556 11.46645577 -1.75 16.75 C-4.82787905 26.46210745 -6.69248318 36.2822152 -8.35058594 46.32519531 C-8.63337402 47.99533691 -8.63337402 47.99533691 -8.921875 49.69921875 C-9.08268555 50.69783936 -9.24349609 51.69645996 -9.40917969 52.7253418 C-9.60415039 53.475979 -9.79912109 54.22661621 -10 55 C-10.99 55.495 -10.99 55.495 -12 56 C-11.23310677 36.82766923 -9.38414547 17.09255067 0 0 Z " fill="#6F6F6F" transform="translate(108,65)"/>
<path d="M0 0 C0.66 0 1.32 0 2 0 C2 0.99 2 1.98 2 3 C2.99 3 3.98 3 5 3 C5.49568187 11.59181916 3.46739292 19.55289122 0.25 27.5 C-1.05448154 31.1525483 -0.93837867 31.57077796 0 35 C-1.01243658 38.4591583 -2.27352315 40.64531545 -5 43 C-5.99 42.67 -6.98 42.34 -8 42 C-7.65066406 41.11441406 -7.30132812 40.22882813 -6.94140625 39.31640625 C-4.28172458 32.07574313 -2.50609253 25.41430155 -2.0625 17.6875 C-1.99494507 16.58547241 -1.99494507 16.58547241 -1.92602539 15.46118164 C-1.8572972 13.64191851 -1.91818899 11.81872177 -2 10 C-2.66 9.34 -3.32 8.68 -4 8 C-3 7 -2 6 -1 5 C-0.63557767 3.33985384 -0.30027117 1.67293936 0 0 Z " fill="#757575" transform="translate(93,161)"/>
<path d="M0 0 C0.33 0.66 0.66 1.32 1 2 C0.67 2.66 0.34 3.32 0 4 C0.9590625 3.7215625 0.9590625 3.7215625 1.9375 3.4375 C2.618125 3.293125 3.29875 3.14875 4 3 C4.33 3.33 4.66 3.66 5 4 C6.69141656 3.91036938 8.37959602 3.75422324 10.0625 3.5625 C10.98160156 3.46066406 11.90070313 3.35882813 12.84765625 3.25390625 C13.91306641 3.12822266 13.91306641 3.12822266 15 3 C14.67 4.32 14.34 5.64 14 7 C11.03 7 8.06 7 5 7 C9.455 7.99 9.455 7.99 14 9 C14 12.3 14 15.6 14 19 C13.67 19 13.34 19 13 19 C13 16.69 13 14.38 13 12 C12.01 12 11.02 12 10 12 C10 11.01 10 10.02 10 9 C9.34 9 8.68 9 8 9 C8 11.64 8 14.28 8 17 C7.01 17 6.02 17 5 17 C4.34 17.33 3.68 17.66 3 18 C2.01 17.67 1.02 17.34 0 17 C0 14 0 11 0 8 C-0.99 8.495 -0.99 8.495 -2 9 C-2 9.66 -2 10.32 -2 11 C-3.32 10.67 -4.64 10.34 -6 10 C-5.72510809 5.96825194 -5.46508424 4.43105369 -2.4375 1.625 C-1.633125 1.08875 -0.82875 0.5525 0 0 Z M2 11 C2.33 11.99 2.66 12.98 3 14 C3.99 13.67 4.98 13.34 6 13 C5.67 12.34 5.34 11.68 5 11 C4.01 11 3.02 11 2 11 Z " fill="#A2A3A3" transform="translate(85,152)"/>
<path d="M0 0 C2.375 0.4375 2.375 0.4375 5.375 2.4375 C7.03049531 2.82249891 8.6972433 3.16543135 10.375 3.4375 C10.045 4.4275 9.715 5.4175 9.375 6.4375 C12.345 6.9325 12.345 6.9325 15.375 7.4375 C15.375 8.0975 15.375 8.7575 15.375 9.4375 C10.86795775 10.56426056 10.86795775 10.56426056 8.1875 9.875 C7.589375 9.730625 6.99125 9.58625 6.375 9.4375 C5.715 10.0975 5.055 10.7575 4.375 11.4375 C3.375 8.4375 3.375 8.4375 3.375 4.4375 C-0.07911499 5.13829254 -0.07911499 5.13829254 -3.625 6.4375 C-4.72054988 8.26827674 -4.72054988 8.26827674 -5.625 10.4375 C-7.14462133 12.69073163 -8.70989154 14.90647954 -10.28515625 17.12109375 C-11.71310253 19.5898172 -12.22400809 21.63055662 -12.625 24.4375 C-13.615 24.4375 -14.605 24.4375 -15.625 24.4375 C-14.28676408 16.14043732 -9.69698934 1.61616489 0 0 Z " fill="#828282" transform="translate(126.625,37.5625)"/>
<path d="M0 0 C0 0.66 0 1.32 0 2 C-1.32 2 -2.64 2 -4 2 C-4 2.66 -4 3.32 -4 4 C-4.5775 3.814375 -5.155 3.62875 -5.75 3.4375 C-8.24192097 2.95295981 -9.63959152 3.10467265 -12 4 C-12.33 4.66 -12.66 5.32 -13 6 C-15.97 6 -18.94 6 -22 6 C-22 5.34 -22 4.68 -22 4 C-23.98 4.99 -23.98 4.99 -26 6 C-26 5.34 -26 4.68 -26 4 C-26.969375 4.165 -27.93875 4.33 -28.9375 4.5 C-33.29487763 5.13396273 -37.60630704 5.0896672 -42 5 C-38.27841223 1.54445344 -36.11430745 0.50534754 -31.04296875 0.609375 C-29.93115234 0.62226563 -28.81933594 0.63515625 -27.67382812 0.6484375 C-25.9480957 0.69871094 -25.9480957 0.69871094 -24.1875 0.75 C-23.01767578 0.76804688 -21.84785156 0.78609375 -20.64257812 0.8046875 C-17.7608822 0.8517356 -14.88086203 0.91746291 -12 1 C-12 0.34 -12 -0.32 -12 -1 C-7.48281619 -2.36884358 -4.41225737 -1.47075246 0 0 Z " fill="#909090" transform="translate(180,141)"/>
<path d="M0 0 C0.66 0 1.32 0 2 0 C1.67 1.65 1.34 3.3 1 5 C1.99 5 2.98 5 4 5 C4.05399736 6.45792884 4.09279177 7.91642712 4.125 9.375 C4.14820313 10.18710938 4.17140625 10.99921875 4.1953125 11.8359375 C4 14 4 14 2 16 C1.59952556 18.32275177 1.2602896 20.65739357 1 23 C0.34 21.68 -0.32 20.36 -1 19 C-1.66 19 -2.32 19 -3 19 C-3.33 19.66 -3.66 20.32 -4 21 C-4 18.03 -4 15.06 -4 12 C-4.99 14.64 -5.98 17.28 -7 20 C-8.66342082 15.00973755 -6.01760342 10.67444753 -4 6 C-2.80161298 3.74067537 -1.62103788 1.99928005 0 0 Z M-9 20 C-8.67 21.32 -8.34 22.64 -8 24 C-9.32 24.99 -10.64 25.98 -12 27 C-11.25 22.25 -11.25 22.25 -9 20 Z " fill="#989898" transform="translate(128,64)"/>
<path d="M0 0 C1.93343322 0.96328853 3.82817182 1.96304207 5.703125 3.03515625 C1.18219532 4.49122144 -1.81336296 3.30548466 -6.296875 2.03515625 C-6.956875 4.34515625 -7.616875 6.65515625 -8.296875 9.03515625 C-9.286875 9.03515625 -10.276875 9.03515625 -11.296875 9.03515625 C-12.63668986 9.34139965 -13.97199387 9.6696718 -15.296875 10.03515625 C-15.296875 10.69515625 -15.296875 11.35515625 -15.296875 12.03515625 C-16.946875 11.70515625 -18.596875 11.37515625 -20.296875 11.03515625 C-20.296875 8.03515625 -20.296875 8.03515625 -18.796875 6.34765625 C-18.301875 5.91453125 -17.806875 5.48140625 -17.296875 5.03515625 C-17.956875 4.37515625 -18.616875 3.71515625 -19.296875 3.03515625 C-17.63839323 2.02163961 -15.97021539 1.0239483 -14.296875 0.03515625 C-13.69875 -0.37734375 -13.100625 -0.78984375 -12.484375 -1.21484375 C-8.2143893 -2.67883885 -4.04351337 -1.69855068 0 0 Z M-11.296875 4.03515625 C-10.296875 6.03515625 -10.296875 6.03515625 -10.296875 6.03515625 Z " fill="#797979" transform="translate(152.296875,150.96484375)"/>
<path d="M0 0 C0.66 0 1.32 0 2 0 C2.33 3.96 2.66 7.92 3 12 C3.66 12 4.32 12 5 12 C5 13.65 5 15.3 5 17 C7.64 17 10.28 17 13 17 C11 19 11 19 9.0625 19.1875 C6.55720195 19.9006216 6.55720195 19.9006216 5.375 23.5 C4.92125 24.655 4.4675 25.81 4 27 C3.34 27.33 2.68 27.66 2 28 C2.33 24.7 2.66 21.4 3 18 C1.68 18 0.36 18 -1 18 C-1 18.99 -1 19.98 -1 21 C-1.99 21 -2.98 21 -4 21 C-4 18.03 -4 15.06 -4 12 C-3.34 11.67 -2.68 11.34 -2 11 C-1.30906104 8.42048126 -1.30906104 8.42048126 -0.875 5.4375 C-0.70742187 4.42558594 -0.53984375 3.41367188 -0.3671875 2.37109375 C-0.24601562 1.58863281 -0.12484375 0.80617187 0 0 Z " fill="#C8C9C9" transform="translate(106,131)"/>
<path d="M0 0 C1.22295649 3.66886948 0.41371057 4.55408047 -1 8 C-0.67 8.66 -0.34 9.32 0 10 C-0.19998053 11.88387459 -0.48421394 13.75920152 -0.8125 15.625 C-1.00199219 16.70523438 -1.19148438 17.78546875 -1.38671875 18.8984375 C-1.87950787 21.39063215 -2.4478162 23.8043434 -3.125 26.25 C-3.82653666 29.2565857 -4.0770654 31.25545869 -4 34.25 C-4 37.68518116 -4.13993954 39.20990931 -6 42 C-6.33 40.35 -6.66 38.7 -7 37 C-7.33 37 -7.66 37 -8 37 C-8.1152879 30.87760555 -7.81632284 25.10115246 -6.8125 19.0625 C-6.68447998 18.28342285 -6.55645996 17.5043457 -6.42456055 16.70166016 C-5.31179515 10.55233559 -3.3711244 5.30319175 0 0 Z " fill="#848484" transform="translate(116,60)"/>
<path d="M0 0 C2 1 2 1 4 4 C3.01 4.86625 3.01 4.86625 2 5.75 C-0.44290923 7.99653977 -0.44290923 7.99653977 0 12 C0.99 12.33 1.98 12.66 3 13 C2.67 12.01 2.34 11.02 2 10 C3.32 9.67 4.64 9.34 6 9 C6 12.50935186 5.62457273 15.56484998 5 19 C6.32 19.33 7.64 19.66 9 20 C9 20.33 9 20.66 9 21 C5.875 21.625 5.875 21.625 2 21 C-1.71907755 16.90982143 -3.74932233 12.55420153 -4.625 7.125 C-3.90258159 3.51290794 -2.86762262 2.24033017 0 0 Z " fill="#868686" transform="translate(80,150)"/>
<path d="M0 0 C0.66 0 1.32 0 2 0 C0.47883805 8.53985658 -1.68693792 16.31368557 -4.87084961 24.35375977 C-6.31206251 28.02760828 -7.46096784 31.55855711 -8.1875 35.4375 C-8.455625 36.613125 -8.72375 37.78875 -9 39 C-10.485 39.495 -10.485 39.495 -12 40 C-11.76110725 38.36187831 -11.52191546 36.72379969 -11.28125 35.0859375 C-11.08857247 33.65691246 -10.92322382 32.2240122 -10.78125 30.7890625 C-10.58542105 28.85175465 -10.29857541 26.92415265 -10 25 C-9.34 24.67 -8.68 24.34 -8 24 C-7.29765895 21.8782218 -6.68840476 19.72532241 -6.125 17.5625 C-4.47500907 11.50219495 -2.49496107 5.75964418 0 0 Z " fill="#727272" transform="translate(129,90)"/>
<path d="M0 0 C0 -0.66 0 -1.32 0 -2 C0.99 -1.67 1.98 -1.34 3 -1 C2.67 0.32 2.34 1.64 2 3 C0.02 3 -1.96 3 -4 3 C-4 3.99 -4 4.98 -4 6 C-2.02 6.66 -0.04 7.32 2 8 C2 8.33 2 8.66 2 9 C-1.3 9 -4.6 9 -8 9 C-8 8.34 -8 7.68 -8 7 C-8.66 7 -9.32 7 -10 7 C-10 6.34 -10 5.68 -10 5 C-10.99 4.67 -11.98 4.34 -13 4 C-8.6626506 -0.69879518 -8.6626506 -0.69879518 -5.9375 -1.9375 C-3.47486215 -2.01693993 -2.08163056 -1.26384713 0 0 Z " fill="#656565" transform="translate(176,145)"/>
<path d="M0 0 C2.04470249 1.66736408 2.92566921 2.52497566 3.34057617 5.17651367 C3.32486572 5.99869385 3.30915527 6.82087402 3.29296875 7.66796875 C3.28330078 8.56064453 3.27363281 9.45332031 3.26367188 10.37304688 C3.23853516 11.30181641 3.21339844 12.23058594 3.1875 13.1875 C3.17396484 14.12787109 3.16042969 15.06824219 3.14648438 16.03710938 C3.11113096 18.35865038 3.06178674 20.67903653 3 23 C2.38125 23.12375 1.7625 23.2475 1.125 23.375 C-1.19120832 23.87197356 -1.19120832 23.87197356 -3 26 C-2.54736337 17.17358581 -1.85479354 8.66170574 0 0 Z " fill="#A7A7A7" transform="translate(105,171)"/>
<path d="M0 0 C0.33 0 0.66 0 1 0 C1.06058594 1.10859375 1.12117188 2.2171875 1.18359375 3.359375 C1.26802951 4.8229282 1.35267599 6.28646925 1.4375 7.75 C1.47681641 8.47960937 1.51613281 9.20921875 1.55664062 9.9609375 C1.78495702 14.08087352 1.78495702 14.08087352 2.5546875 18.12304688 C3.35298191 21.48778778 1.45035595 23.98325962 0 27 C-0.66 26.34 -1.32 25.68 -2 25 C-2.66 25.33 -3.32 25.66 -4 26 C-3.64390639 16.9011942 -2.87704025 8.70349911 0 0 Z " fill="#767676" transform="translate(106,193)"/>
<path d="M0 0 C1.32 0.99 2.64 1.98 4 3 C4.66 2.34 5.32 1.68 6 1 C5.53395685 5.75364013 4.87250217 9.13317016 2 13 C1.01 13.66 0.02 14.32 -1 15 C-0.67 15 -0.34 15 0 15 C0 17.31 0 19.62 0 22 C-0.33 21.34 -0.66 20.68 -1 20 C-1.99 19.67 -2.98 19.34 -4 19 C-3.00318287 12.54189755 -1.98363508 6.23428168 0 0 Z " fill="#9B9B9B" transform="translate(113,100)"/>
<path d="M0 0 C6.96967288 0.84442691 13.01515183 1.72731283 18 7 C19.3877718 9.09526331 20.62298062 11.18557279 21.76171875 13.42578125 C22.17035156 13.94527344 22.57898438 14.46476562 23 15 C24.32 15 25.64 15 27 15 C27.33 14.34 27.66 13.68 28 13 C28.33 14.65 28.66 16.3 29 18 C27.02 17.67 25.04 17.34 23 17 C22.67 17.99 22.34 18.98 22 20 C21.48050781 19.09636719 20.96101563 18.19273438 20.42578125 17.26171875 C19.7219774 16.06994423 19.01751535 14.87855824 18.3125 13.6875 C17.97283203 13.09259766 17.63316406 12.49769531 17.28320312 11.88476562 C15.00933023 8.08081003 13.06609703 5.80715424 9 4 C6.57470084 3.43914436 6.57470084 3.43914436 4.1875 3.3125 C3.00220703 3.21388672 3.00220703 3.21388672 1.79296875 3.11328125 C0.90544922 3.05720703 0.90544922 3.05720703 0 3 C0 2.01 0 1.02 0 0 Z " fill="#888888" transform="translate(132,50)"/>
<path d="M0 0 C-0.3125 1.875 -0.3125 1.875 -1 4 C-1.99 4.66 -2.98 5.32 -4 6 C-2.14375 6.3403125 -2.14375 6.3403125 -0.25 6.6875 C3.06929034 7.50555205 3.96898432 7.96898432 6.5 10.5 C8 13 8 13 8 15 C7.01 14.67 6.02 14.34 5 14 C4.72414062 13.33484375 4.44828125 12.6696875 4.1640625 11.984375 C3.77992188 11.32953125 3.39578125 10.6746875 3 10 C0.35212912 9.29626983 0.35212912 9.29626983 -2.625 9.25 C-4.12933594 9.16492188 -4.12933594 9.16492188 -5.6640625 9.078125 C-6.43492187 9.05234375 -7.20578125 9.0265625 -8 9 C-8.84139118 5.92988563 -9.30105635 4.00243773 -8 1 C-5.08518252 -1.1107299 -3.34823603 -1.19579858 0 0 Z " fill="#777777" transform="translate(176,131)"/>
<path d="M0 0 C1.32 0.33 2.64 0.66 4 1 C3.01 1.33 2.02 1.66 1 2 C0.67 1.34 0.34 0.68 0 0 Z M-2 2 C-1.67 2.99 -1.34 3.98 -1 5 C-2.109375 6.8671875 -2.109375 6.8671875 -3.75 8.875 C-7.33973539 13.43088227 -10.1619075 17.1333525 -11 23 C-11.99 23 -12.98 23 -14 23 C-13.02194896 16.69376048 -11.43275579 10.80011124 -7 6 C-5.66754537 5.66317132 -4.33429669 5.32945597 -3 5 C-2.67 4.01 -2.34 3.02 -2 2 Z " fill="#777777" transform="translate(125,39)"/>
<path d="M0 0 C1.32 0 2.64 0 4 0 C3.67 3.3 3.34 6.6 3 10 C2.34 10 1.68 10 1 10 C1.02320312 10.7734375 1.04640625 11.546875 1.0703125 12.34375 C1.17928906 18.63325438 0.85126093 23.98340199 -1 30 C-1.66 29.34 -2.32 28.68 -3 28 C-2.6730244 25.38419521 -2.17960932 23.35921863 -1 21 C-0.95374181 18.95885744 -0.96211016 16.91631505 -1 14.875 C-1.04511256 9.79419805 -0.78653122 5.01413655 0 0 Z " fill="#DEDFDF" transform="translate(105,149)"/>
<path d="M0 0 C1.32 0 2.64 0 4 0 C3.835 0.804375 3.67 1.60875 3.5 2.4375 C2.96808161 4.7284443 2.96808161 4.7284443 3 6 C3 6.66 3 7.32 3 8 C-2.2734375 11.22265625 -2.2734375 11.22265625 -4 12 C-4.66 11.67 -5.32 11.34 -6 11 C-4.68 9.35 -3.36 7.7 -2 6 C-5.28788824 9.11016455 -7.83735988 12.01618925 -10 16 C-10.33 15.34 -10.66 14.68 -11 14 C-8.62851451 8.88436702 -5.11919881 4.77593224 -1 1 C-0.67 0.67 -0.34 0.34 0 0 Z " fill="#CBCBCB" transform="translate(126,42)"/>
<path d="M0 0 C0 0.66 0 1.32 0 2 C-0.73114014 2.01458252 -1.46228027 2.02916504 -2.21557617 2.04418945 C-5.54007371 2.1188291 -8.86358467 2.21543801 -12.1875 2.3125 C-13.33798828 2.33505859 -14.48847656 2.35761719 -15.67382812 2.38085938 C-16.78564453 2.41630859 -17.89746094 2.45175781 -19.04296875 2.48828125 C-20.57473755 2.52755737 -20.57473755 2.52755737 -22.13745117 2.56762695 C-25.37834888 3.05714762 -27.27905739 4.22683127 -30 6 C-30.66 6 -31.32 6 -32 6 C-32 5.34 -32 4.68 -32 4 C-22.71364798 -3.41368988 -11.04281625 -1.01561456 0 0 Z " fill="#C9CACA" transform="translate(168,140)"/>
<path d="M0 0 C0.99 0 1.98 0 3 0 C3.25229358 4.5412844 3.25229358 4.5412844 1.96875 6.875 C0.78575131 9.46996487 0.96377248 10.9536529 1.375 13.75 C1.48585938 14.54921875 1.59671875 15.3484375 1.7109375 16.171875 C1.80632812 16.77515625 1.90171875 17.3784375 2 18 C1.34 17.67 0.68 17.34 0 17 C-0.33 17.99 -0.66 18.98 -1 20 C-2.32 20 -3.64 20 -5 20 C-4.71617054 18.24871182 -4.42260471 16.49899997 -4.125 14.75 C-3.96257812 13.77546875 -3.80015625 12.8009375 -3.6328125 11.796875 C-3.04724815 9.20882517 -2.24019326 7.32036159 -1 5 C-0.62331656 3.34259285 -0.27942455 1.67654729 0 0 Z " fill="#A7A8A8" transform="translate(99,179)"/>
<path d="M0 0 C0.33 0 0.66 0 1 0 C0.86125385 3.77112931 0.71278907 7.54181445 0.5625 11.3125 C0.52318359 12.38435547 0.48386719 13.45621094 0.44335938 14.56054688 C0.40146484 15.58857422 0.35957031 16.61660156 0.31640625 17.67578125 C0.27974854 18.62364502 0.24309082 19.57150879 0.20532227 20.5480957 C0 23 0 23 -1 26 C-2.32 25.67 -3.64 25.34 -5 25 C-4.67 24.34 -4.34 23.68 -4 23 C-3.80542732 21.60129633 -3.65699666 20.19596882 -3.53515625 18.7890625 C-3.45716797 17.95632812 -3.37917969 17.12359375 -3.29882812 16.265625 C-3.14200046 14.51330269 -2.98832459 12.76069528 -2.83789062 11.0078125 C-2.75861328 10.1725 -2.67933594 9.3371875 -2.59765625 8.4765625 C-2.53070557 7.71424316 -2.46375488 6.95192383 -2.39477539 6.16650391 C-1.96698777 3.81883082 -1.1604822 2.07374019 0 0 Z " fill="#737373" transform="translate(101,115)"/>
<path d="M0 0 C0.93498265 2.80494795 1.10691807 4.41864298 1.0625 7.30859375 C1.05476563 8.13810547 1.04703125 8.96761719 1.0390625 9.82226562 C1.01307917 11.56184983 0.98703776 13.30143317 0.9609375 15.04101562 C0.95320313 15.87181641 0.94546875 16.70261719 0.9375 17.55859375 C0.92009766 18.69252563 0.92009766 18.69252563 0.90234375 19.84936523 C1.00121685 22.02679814 1.39812342 23.91031533 2 26 C1.01 25.67 0.02 25.34 -1 25 C-2.1875 21.4375 -2.1875 21.4375 -3 18 C-3.66 18 -4.32 18 -5 18 C-4.67 16.68 -4.34 15.36 -4 14 C-3.34 14 -2.68 14 -2 14 C-2.04125 12.80375 -2.0825 11.6075 -2.125 10.375 C-2.13851708 6.57670047 -1.42009753 3.55024382 0 0 Z " fill="#868686" transform="translate(90,202)"/>
<path d="M0 0 C0 0.66 0 1.32 0 2 C-1.32 2 -2.64 2 -4 2 C-4 2.66 -4 3.32 -4 4 C-4.5775 3.814375 -5.155 3.62875 -5.75 3.4375 C-8.24192097 2.95295981 -9.63959152 3.10467265 -12 4 C-12.33 4.66 -12.66 5.32 -13 6 C-15.97 6 -18.94 6 -22 6 C-22 5.34 -22 4.68 -22 4 C-20.7625 3.67 -19.525 3.34 -18.25 3 C-17.20585937 2.7215625 -17.20585937 2.7215625 -16.140625 2.4375 C-14 2 -14 2 -10 2 C-10 1.34 -10 0.68 -10 0 C-10.66 -0.33 -11.32 -0.66 -12 -1 C-7.48281619 -2.36884358 -4.41225737 -1.47075246 0 0 Z " fill="#9C9C9C" transform="translate(180,141)"/>
<path d="M0 0 C-0.15597656 0.69867188 -0.31195313 1.39734375 -0.47265625 2.1171875 C-0.66730469 3.02726562 -0.86195312 3.93734375 -1.0625 4.875 C-1.25972656 5.77992187 -1.45695312 6.68484375 -1.66015625 7.6171875 C-2.23202157 10.01014125 -2.23202157 10.01014125 -1 12 C-1.9375 14.625 -1.9375 14.625 -3 17 C-3.99 16.67 -4.98 16.34 -6 16 C-6 12.37 -6 8.74 -6 5 C-6.33 5 -6.66 5 -7 5 C-7 3.35 -7 1.7 -7 0 C-2.25 -1.125 -2.25 -1.125 0 0 Z " fill="#8F8F8F" transform="translate(118,113)"/>
<path d="M0 0 C0.33 0.66 0.66 1.32 1 2 C1.99 2 2.98 2 4 2 C4.05399736 3.45792884 4.09279177 4.91642712 4.125 6.375 C4.14820313 7.18710938 4.17140625 7.99921875 4.1953125 8.8359375 C4 11 4 11 2 13 C1.59952556 15.32275177 1.2602896 17.65739357 1 20 C-0.5625 18.5625 -0.5625 18.5625 -2 16 C-2.01769706 12.94430695 -1.50957387 10.00699034 -1 7 C-0.8097781 5.646213 -0.62196562 4.29208335 -0.4375 2.9375 C-0.293125 1.968125 -0.14875 0.99875 0 0 Z " fill="#939393" transform="translate(128,67)"/>
<path d="M0 0 C0 2.64 0 5.28 0 8 C-3.3 8 -6.6 8 -10 8 C-10 7.34 -10 6.68 -10 6 C-10.99 5.67 -11.98 5.34 -13 5 C-11.21046815 4.16209211 -9.41830305 3.32980604 -7.625 2.5 C-6.62726563 2.0359375 -5.62953125 1.571875 -4.6015625 1.09375 C-2 0 -2 0 0 0 Z " fill="#8B8B8B" transform="translate(168,132)"/>
<path d="M0 0 C-0.62031591 6.57534861 -2.14897283 12.66692592 -4 19 C-4.33 19 -4.66 19 -5 19 C-5.79809721 15.43127262 -6.21681654 12.03111519 -6.3125 8.375 C-6.34988281 7.43398437 -6.38726562 6.49296875 -6.42578125 5.5234375 C-6 3 -6 3 -4.10546875 1.1640625 C-2 0 -2 0 0 0 Z " fill="#9E9E9E" transform="translate(96,202)"/>
<path d="M0 0 C0.66 0 1.32 0 2 0 C2.33 2.97 2.66 5.94 3 9 C3.33 9 3.66 9 4 9 C4 11.97 4 14.94 4 18 C3.01 18.33 2.02 18.66 1 19 C1.33 17.02 1.66 15.04 2 13 C1.34 13 0.68 13 0 13 C-0.33 14.32 -0.66 15.64 -1 17 C-1.02684679 14.35409986 -1.04676357 11.70846904 -1.0625 9.0625 C-1.07087891 8.30775391 -1.07925781 7.55300781 -1.08789062 6.77539062 C-1.09652441 4.85005687 -1.05224333 2.92464419 -1 1 C-0.67 0.67 -0.34 0.34 0 0 Z " fill="#9FA0A0" transform="translate(109,130)"/>
<path d="M0 0 C0.33 0 0.66 0 1 0 C1.37251565 6.4845317 0.76054161 11.81174864 -1.34375 17.96875 C-2.10247683 19.96141869 -2.10247683 19.96141869 -2 22 C-3.32 22 -4.64 22 -6 22 C-5.38153536 19.08180761 -4.75551865 16.16558978 -4.125 13.25 C-3.95097656 12.425 -3.77695313 11.6 -3.59765625 10.75 C-3.42363281 9.95078125 -3.24960938 9.1515625 -3.0703125 8.328125 C-2.91320801 7.5949707 -2.75610352 6.86181641 -2.59423828 6.10644531 C-1.97058111 3.89571644 -1.08856601 2.01763516 0 0 Z " fill="#6F6E6E" transform="translate(96,123)"/>
<path d="M0 0 C0.66 0.33 1.32 0.66 2 1 C1.814375 1.5775 1.62875 2.155 1.4375 2.75 C0.82930802 4.96319375 0.82930802 4.96319375 1.5625 6.9375 C2.18044359 9.85066266 1.33971298 11.3875597 0 14 C-1.625 15.8125 -1.625 15.8125 -3 17 C-3.99 16.67 -4.98 16.34 -6 16 C-5.19110952 13.51960151 -4.37808099 11.04069788 -3.5625 8.5625 C-3.33240234 7.85544922 -3.10230469 7.14839844 -2.86523438 6.41992188 C-1.11328125 1.11328125 -1.11328125 1.11328125 0 0 Z " fill="#8E8E8E" transform="translate(91,187)"/>
<path d="M0 0 C-1.32 0.33 -2.64 0.66 -4 1 C-3.67 1.99 -3.34 2.98 -3 4 C-5.45779976 4.22126178 -7.91527648 4.42750395 -10.375 4.625 C-11.42300781 4.72167969 -11.42300781 4.72167969 -12.4921875 4.8203125 C-14.32369111 4.96119739 -16.16312748 4.98761659 -18 5 C-18.66 4.34 -19.32 3.68 -20 3 C-17.41932437 2.30081695 -14.83627153 1.61538951 -12.25 0.9375 C-11.15558594 0.63875977 -11.15558594 0.63875977 -10.0390625 0.33398438 C-6.28968956 -0.63744407 -3.69725762 -1.15449387 0 0 Z " fill="#ABABAB" transform="translate(140,143)"/>
<path d="M0 0 C0.33 0 0.66 0 1 0 C1.10234659 9.06335876 1.06996173 17.98175113 0 27 C-2 25 -2 25 -2.265625 22.3828125 C-2.22892087 14.73000121 -1.51397942 7.50230872 0 0 Z " fill="#A4A4A4" transform="translate(103,111)"/>
<path d="M0 0 C0.66 0 1.32 0 2 0 C2 1.65 2 3.3 2 5 C4.64 5 7.28 5 10 5 C8 7 8 7 6.0625 7.1875 C3.55720195 7.9006216 3.55720195 7.9006216 2.375 11.5 C1.92125 12.655 1.4675 13.81 1 15 C0.01 15.495 0.01 15.495 -1 16 C-1.02725341 14.2709226 -1.04650987 12.54171824 -1.0625 10.8125 C-1.07410156 9.84957031 -1.08570312 8.88664063 -1.09765625 7.89453125 C-1.00486622 5.14423487 -0.62111685 2.67520409 0 0 Z " fill="#CED0CF" transform="translate(109,143)"/>
<path d="M0 0 C-2 8.57142857 -2 8.57142857 -4 12 C-4.99 12 -5.98 12 -7 12 C-7.875 9.375 -7.875 9.375 -8 6 C-6.02996897 3.1508346 -3.635238 0 0 0 Z " fill="#6C6C6C" transform="translate(104,227)"/>
<path d="M0 0 C1.93037129 0.96690001 3.82520232 1.96748395 5.69921875 3.0390625 C1.99602626 4.20806145 -0.33928001 3.5642766 -4.0625 2.51953125 C-7.79400664 1.71852721 -11.50493615 1.88090229 -15.30078125 2.0390625 C-11.57362369 -3.55167384 -5.61164648 -2.34374369 0 0 Z " fill="#848484" transform="translate(152.30078125,150.9609375)"/>
<path d="M0 0 C0.66 0.33 1.32 0.66 2 1 C1.34 3.97 0.68 6.94 0 10 C1.32 10.33 2.64 10.66 4 11 C4 11.33 4 11.66 4 12 C1.69 12 -0.62 12 -3 12 C-3.68707555 9.50935112 -4 7.62113708 -4 5 C-3.34 5 -2.68 5 -2 5 C-2.33 3.68 -2.66 2.36 -3 1 C-2.01 0.67 -1.02 0.34 0 0 Z " fill="#828282" transform="translate(85,159)"/>
<path d="M0 0 C0.66 0 1.32 0 2 0 C5 4.38461538 5 4.38461538 5 7 C6.32 6.67 7.64 6.34 9 6 C9 7.32 9 8.64 9 10 C5.7 9.34 2.4 8.68 -1 8 C-0.67 5.36 -0.34 2.72 0 0 Z " fill="#6C6C6C" transform="translate(86,228)"/>
<path d="M0 0 C0.33 0 0.66 0 1 0 C1.3690205 9.41002278 1.3690205 9.41002278 -1 14 C-1.66 14 -2.32 14 -3 14 C-2.34 12.35 -1.68 10.7 -1 9 C-3.7972908 11.06756277 -4.02692273 12.14440371 -4.6875 15.6875 C-4.790625 16.780625 -4.89375 17.87375 -5 19 C-5.33 19 -5.66 19 -6 19 C-6 15.37 -6 11.74 -6 8 C-4.68 7.34 -3.36 6.68 -2 6 C-0.70768358 2.95800528 -0.70768358 2.95800528 0 0 Z " fill="#A3A4A4" transform="translate(112,151)"/>
<path d="M0 0 C0.33 0 0.66 0 1 0 C1 2.31 1 4.62 1 7 C0.34 7 -0.32 7 -1 7 C-1 7.99 -1 8.98 -1 10 C-5.29 10.66 -9.58 11.32 -14 12 C-13.67 11.34 -13.34 10.68 -13 10 C-11.33333333 9.66666667 -9.66666667 9.33333333 -8 9 C-7.67 8.34 -7.34 7.68 -7 7 C-6.195625 6.731875 -5.39125 6.46375 -4.5625 6.1875 C-1.76670768 5.21535469 -1.76670768 5.21535469 -0.6875 2.375 C-0.460625 1.59125 -0.23375 0.8075 0 0 Z " fill="#9E9E9E" transform="translate(100,138)"/>
<path d="M0 0 C0.33 0 0.66 0 1 0 C1.38999191 7.59762024 0.60758587 13.84466021 -2 21 C-2.33 21 -2.66 21 -3 21 C-2.88513575 18.62412376 -2.75841844 16.24984829 -2.625 13.875 C-2.5940625 13.20984375 -2.563125 12.5446875 -2.53125 11.859375 C-2.28080367 7.60178738 -1.52471803 3.97914217 0 0 Z " fill="#939393" transform="translate(105,176)"/>
<path d="M0 0 C0.66 0.66 1.32 1.32 2 2 C0.68 6.29 -0.64 10.58 -2 15 C-2.66 15 -3.32 15 -4 15 C-4.66 15.66 -5.32 16.32 -6 17 C-4.89061647 10.69403048 -3.06802099 5.62470514 0 0 Z " fill="#878787" transform="translate(121,67)"/>
<path d="M0 0 C5.30202857 0.51727108 8.54629283 2.25925713 13 5 C13.66 5.33 14.32 5.66 15 6 C14.67 6.99 14.34 7.98 14 9 C13.38125 8.566875 12.7625 8.13375 12.125 7.6875 C7.93427674 5.42450944 3.5777753 4.25333265 -1 3 C-0.67 2.01 -0.34 1.02 0 0 Z " fill="#7E7E7E" transform="translate(141,48)"/>
<path d="M0 0 C0 3 0 3 -1 5 C-0.34 5 0.32 5 1 5 C0 8 0 8 -2 9 C-2 9.66 -2 10.32 -2 11 C-3.32 10.67 -4.64 10.34 -6 10 C-5.72510809 5.96825194 -5.46508424 4.43105369 -2.4375 1.625 C-1.633125 1.08875 -0.82875 0.5525 0 0 Z " fill="#C4C4C4" transform="translate(85,152)"/>
<path d="M0 0 C3.15295167 3.15295167 5 6.51187917 5 11 C5.99 11.66 6.98 12.32 8 13 C7.67 13.66 7.34 14.32 7 15 C6.34 15 5.68 15 5 15 C2.70351351 12.4385343 2 11.52032428 2 8 C1.01 8 0.02 8 -1 8 C-0.67 5.36 -0.34 2.72 0 0 Z " fill="#9A9A9A" transform="translate(86,220)"/>
<path d="M0 0 C0.99 0 1.98 0 3 0 C3.09038099 5.15171623 2.84681133 9.91913204 2 15 C1.01 15.33 0.02 15.66 -1 16 C-0.67 10.72 -0.34 5.44 0 0 Z " fill="#969796" transform="translate(103,127)"/>
<path d="M0 0 C1.5 1 1.5 1 3 3 C3.55983509 8.69165673 3.00233171 11.99611382 0 17 C-0.99 17 -1.98 17 -3 17 C-2.690625 16.34 -2.38125 15.68 -2.0625 15 C-0.3169764 10.07146277 0 5.23104843 0 0 Z " fill="#888888" transform="translate(118,96)"/>
<path d="M0 0 C0.66 0 1.32 0 2 0 C1.387332 3.12754976 0.75778538 6.25146367 0.125 9.375 C-0.04902344 10.26445313 -0.22304687 11.15390625 -0.40234375 12.0703125 C-0.57636719 12.92109375 -0.75039062 13.771875 -0.9296875 14.6484375 C-1.08679199 15.43395996 -1.24389648 16.21948242 -1.40576172 17.02880859 C-2 19 -2 19 -4 21 C-4.4816672 14.09610352 -2.85415215 7.62883411 -1 1 C-0.67 0.67 -0.34 0.34 0 0 Z " fill="#ADAEAD" transform="translate(128,64)"/>
<path d="M0 0 C-0.33 2.31 -0.66 4.62 -1 7 C-1.99 7 -2.98 7 -4 7 C-4 6.34 -4 5.68 -4 5 C-3.34 5 -2.68 5 -2 5 C-2 3.68 -2 2.36 -2 1 C-2.66 1 -3.32 1 -4 1 C-4.33 1.66 -4.66 2.32 -5 3 C-8.10551666 3 -9.35261084 2.4606285 -12 1 C-7.58774263 -0.47075246 -4.51718381 -1.36884358 0 0 Z " fill="#727272" transform="translate(145,153)"/>
<path d="M0 0 C-2.23495428 2.23495428 -4.02414536 3.0024791 -6.9375 4.1875 C-7.81277344 4.55230469 -8.68804687 4.91710937 -9.58984375 5.29296875 C-12 6 -12 6 -15 5 C-14.01 4.67 -13.02 4.34 -12 4 C-11.67 3.01 -11.34 2.02 -11 1 C-7.058684 -1.25218057 -4.34378986 -1.01018369 0 0 Z " fill="#7C7C7C" transform="translate(172,130)"/>
<path d="M0 0 C-0.33 0.66 -0.66 1.32 -1 2 C-1.79664063 1.47599609 -1.79664063 1.47599609 -2.609375 0.94140625 C-3.31578125 0.48636719 -4.0221875 0.03132813 -4.75 -0.4375 C-5.44609375 -0.88996094 -6.1421875 -1.34242187 -6.859375 -1.80859375 C-8.92957014 -2.9608009 -10.68696324 -3.54676982 -13 -4 C-13 -3.34 -13 -2.68 -13 -2 C-15.97 -2.495 -15.97 -2.495 -19 -3 C-12.7154306 -9.2845694 -5.66826639 -4.4268017 0 0 Z " fill="#929292" transform="translate(154,52)"/>
<path d="M0 0 C-0.125 1.875 -0.125 1.875 -1 4 C-4.0625 5.25 -4.0625 5.25 -7 6 C-7.33 4.35 -7.66 2.7 -8 1 C-4.93251126 -0.86240388 -3.40254489 -1.2151946 0 0 Z " fill="#6B6B6B" transform="translate(176,131)"/>
<path d="M0 0 C0.66 0 1.32 0 2 0 C1.74528401 2.93972221 1.47200125 5.87564064 1.1875 8.8125 C1.11724609 9.64587891 1.04699219 10.47925781 0.97460938 11.33789062 C0.89404297 12.14033203 0.81347656 12.94277344 0.73046875 13.76953125 C0.62835083 14.87711792 0.62835083 14.87711792 0.52416992 16.00708008 C-0.11004205 18.41838529 -1.12441153 19.4065212 -3 21 C-2.85691406 20.17242187 -2.71382813 19.34484375 -2.56640625 18.4921875 C-1.95319843 14.71144412 -1.43424327 10.9223263 -0.9375 7.125 C-0.84662109 6.43664062 -0.75574219 5.74828125 -0.66210938 5.0390625 C-0.44049969 3.35949437 -0.22012172 1.67976379 0 0 Z " fill="#D0D0D0" transform="translate(99,163)"/>
<path d="M0 0 C-2.34545328 2.34545328 -3.95985838 2.95508888 -7.26171875 3.09765625 C-8.06222656 3.08605469 -8.86273438 3.07445312 -9.6875 3.0625 C-10.89986328 3.04896484 -10.89986328 3.04896484 -12.13671875 3.03515625 C-13.05904297 3.01775391 -13.05904297 3.01775391 -14 3 C-9.47669209 -1.81513423 -6.01431461 -1.20548354 0 0 Z " fill="#AAABAA" transform="translate(152,143)"/>
<path d="M0 0 C0.33 0 0.66 0 1 0 C0.88544319 1.91731918 0.75793742 3.8338675 0.625 5.75 C0.55539063 6.81734375 0.48578125 7.8846875 0.4140625 8.984375 C0.0271777 11.80206432 -0.55686166 13.5830366 -2 16 C-2.66 16 -3.32 16 -4 16 C-3.52417032 13.70763814 -3.04423615 11.41612791 -2.5625 9.125 C-2.29566406 7.84882812 -2.02882813 6.57265625 -1.75390625 5.2578125 C-1 2 -1 2 0 0 Z " fill="#BCBCBC" transform="translate(109,76)"/>
<path d="M0 0 C1.06347656 -0.00515625 2.12695312 -0.0103125 3.22265625 -0.015625 C5.9375 0.25 5.9375 0.25 7.9375 2.25 C2.00725197 3.22040422 -3.12640334 3.14316269 -9.0625 2.25 C-5.58864567 -0.06590289 -4.09819994 -0.01991835 0 0 Z " fill="#CECECE" transform="translate(142.0625,42.75)"/>
<path d="M0 0 C1.4783226 2.95664519 1.06032783 5.74229737 1 9 C0.34 9 -0.32 9 -1 9 C-1.66 8.01 -2.32 7.02 -3 6 C-3.33 5.67 -3.66 5.34 -4 5 C-4.99 5.99 -5.98 6.98 -7 8 C-7.33 7.34 -7.66 6.68 -8 6 C-5.79072873 2.51167694 -3.91402949 1.26941497 0 0 Z " fill="#878787" transform="translate(131,54)"/>
<path d="M0 0 C1.89213369 2.38573379 3.02391783 4.07175348 4 7 C1.35261084 8.4606285 0.10551666 9 -3 9 C-2.5020163 5.26512223 -2.12508244 3.18762365 0 0 Z " fill="#A0A0A0" transform="translate(116,158)"/>
<path d="M0 0 C0.99 0.33 1.98 0.66 3 1 C3 3.64 3 6.28 3 9 C2.34 9 1.68 9 1 9 C0.67 9.99 0.34 10.98 0 12 C-0.33 12 -0.66 12 -1 12 C-0.67 8.04 -0.34 4.08 0 0 Z " fill="#B4B6B5" transform="translate(109,119)"/>
<path d="M0 0 C0.99 0 1.98 0 3 0 C3 3.96 3 7.92 3 12 C2.01 12.33 1.02 12.66 0 13 C0 8.71 0 4.42 0 0 Z " fill="#9F9F9F" transform="translate(85,204)"/>
<path d="M0 0 C0.66 0.33 1.32 0.66 2 1 C1.67 1.66 1.34 2.32 1 3 C2.32 3.33 3.64 3.66 5 4 C4.67 4.99 4.34 5.98 4 7 C1.69 7 -0.62 7 -3 7 C-3.33 5.68 -3.66 4.36 -4 3 C-2.68 2.01 -1.36 1.02 0 0 Z " fill="#C6C6C6" transform="translate(122,154)"/>
<path d="M0 0 C0.66 0 1.32 0 2 0 C1.45144652 4.571279 0.58255197 8.67435795 -1 13 C-1.66 12.67 -2.32 12.34 -3 12 C-2.69106068 10.3743193 -2.3777305 8.74947252 -2.0625 7.125 C-1.88847656 6.22007813 -1.71445313 5.31515625 -1.53515625 4.3828125 C-1 2 -1 2 0 0 Z " fill="#9B9B9B" transform="translate(122,102)"/>
<path d="M0 0 C0.66 0 1.32 0 2 0 C2 0.66 2 1.32 2 2 C3.65 1.34 5.3 0.68 7 0 C7 1.65 7 3.3 7 5 C6.01 5 5.02 5 4 5 C3.01 5.495 3.01 5.495 2 6 C1.01 5.67 0.02 5.34 -1 5 C-0.67 3.35 -0.34 1.7 0 0 Z " fill="#959595" transform="translate(86,164)"/>
<path d="M0 0 C0 -0.66 0 -1.32 0 -2 C0.99 -1.67 1.98 -1.34 3 -1 C2.34 0.32 1.68 1.64 1 3 C1 2.34 1 1.68 1 1 C-2.3 1.33 -5.6 1.66 -9 2 C-8.67 1.01 -8.34 0.02 -8 -1 C-4.71293093 -2.47351372 -2.99288606 -1.8171094 0 0 Z " fill="#7B7B7B" transform="translate(176,145)"/>
<path d="M0 0 C0 0.66 0 1.32 0 2 C-0.66 2 -1.32 2 -2 2 C-2.33 5.63 -2.66 9.26 -3 13 C-6 9 -6 9 -5.875 5.375 C-4.92810304 1.72268316 -4.0529233 0 0 0 Z " fill="#858585" transform="translate(120,129)"/>
<path d="M0 0 C0.66 0.33 1.32 0.66 2 1 C1.75 4.375 1.75 4.375 1 8 C-1.0625 9.4375 -1.0625 9.4375 -3 10 C-3.33 9.34 -3.66 8.68 -4 8 C-3.22265625 6.0546875 -3.22265625 6.0546875 -2.0625 3.875 C-1.49208984 2.78832031 -1.49208984 2.78832031 -0.91015625 1.6796875 C-0.60980469 1.12539062 -0.30945313 0.57109375 0 0 Z " fill="#747474" transform="translate(108,65)"/>
<path d="M0 0 C0.66 0.33 1.32 0.66 2 1 C2.66 0.67 3.32 0.34 4 0 C6.625 1.375 6.625 1.375 9 3 C9 3.33 9 3.66 9 4 C8.21625 4.144375 7.4325 4.28875 6.625 4.4375 C4.03578982 4.87798925 4.03578982 4.87798925 2 6 C2 5.34 2 4.68 2 4 C0.35 3.67 -1.3 3.34 -3 3 C-2.01 2.01 -1.02 1.02 0 0 Z " fill="#9D9D9D" transform="translate(129,46)"/>
<path d="M0 0 C-0.33 2.64 -0.66 5.28 -1 8 C-1.66 6.68 -2.32 5.36 -3 4 C-3.66 6.64 -4.32 9.28 -5 12 C-5.33 12 -5.66 12 -6 12 C-5.9129995 10.37399059 -5.8048219 8.74910322 -5.6875 7.125 C-5.62949219 6.22007812 -5.57148437 5.31515625 -5.51171875 4.3828125 C-4.81887225 1.15658073 -3.34638587 0 0 0 Z " fill="#C2C2C2" transform="translate(93,200)"/>
<path d="M0 0 C0.99 0 1.98 0 3 0 C3.46192125 4.92715996 1.8275283 8.50732625 0 13 C-0.33 13 -0.66 13 -1 13 C-1.07654536 8.48382401 -1.10228696 4.40914783 0 0 Z " fill="#9A9C9B" transform="translate(99,179)"/>
<path d="M0 0 C3.63 0.33 7.26 0.66 11 1 C11 1.66 11 2.32 11 3 C8.36 3.66 5.72 4.32 3 5 C2.67 4.34 2.34 3.68 2 3 C2.33 2.34 2.66 1.68 3 1 C2.01 0.67 1.02 0.34 0 0 Z " fill="#A6A7A6" transform="translate(89,150)"/>
<path d="M0 0 C0 0.99 0 1.98 0 3 C0.66 3.33 1.32 3.66 2 4 C-0.97 4 -3.94 4 -7 4 C-7 3.34 -7 2.68 -7 2 C-7.99 1.67 -8.98 1.34 -10 1 C-2.25 0 -2.25 0 0 0 Z " fill="#9D9D9D" transform="translate(165,136)"/>
<path d="M0 0 C0.99 0 1.98 0 3 0 C2.67 2.64 2.34 5.28 2 8 C1.01 8 0.02 8 -1 8 C-1.04241723 5.66705225 -1.04092937 3.33297433 -1 1 C-0.67 0.67 -0.34 0.34 0 0 Z " fill="#B8BAB9" transform="translate(102,153)"/>
<path d="M0 0 C0.33 0 0.66 0 1 0 C1.2226746 1.43534841 1.42761906 2.87345525 1.625 4.3125 C1.74101562 5.11300781 1.85703125 5.91351563 1.9765625 6.73828125 C2 9 2 9 0 12 C-1.95143115 9.13024831 -1.98930952 7.87385237 -1.6875 4.3125 C-1 1 -1 1 0 0 Z " fill="#9C9D9C" transform="translate(128,75)"/>
<path d="M0 0 C1.32 0.33 2.64 0.66 4 1 C2.68 3.31 1.36 5.62 0 8 C-0.99 7.67 -1.98 7.34 -3 7 C-2.01 4.69 -1.02 2.38 0 0 Z " fill="#666666" transform="translate(104,74)"/>
<path d="M0 0 C0.99 0 1.98 0 3 0 C3.33 2.31 3.66 4.62 4 7 C3.01 7.495 3.01 7.495 2 8 C1.34 7.67 0.68 7.34 0 7 C0 4.69 0 2.38 0 0 Z " fill="#A1A1A1" transform="translate(101,161)"/>
<path d="M0 0 C0.66 0.66 1.32 1.32 2 2 C1.7578125 4.6015625 1.7578125 4.6015625 1.125 7.625 C0.81949219 9.12933594 0.81949219 9.12933594 0.5078125 10.6640625 C0.34023437 11.43492188 0.17265625 12.20578125 0 13 C-1.44977894 10.65887549 -2.04314411 9.4203071 -1.7578125 6.640625 C-1.54898438 5.85171875 -1.34015625 5.0628125 -1.125 4.25 C-0.92132813 3.45078125 -0.71765625 2.6515625 -0.5078125 1.828125 C-0.34023437 1.22484375 -0.17265625 0.6215625 0 0 Z " fill="#848484" transform="translate(114,86)"/>
<path d="M0 0 C1.28497537 3.85492611 0.4052209 5.40346836 -0.9375 9.1875 C-1.31777344 10.27417969 -1.69804688 11.36085938 -2.08984375 12.48046875 C-2.39019531 13.31191406 -2.69054687 14.14335938 -3 15 C-3.33 15 -3.66 15 -4 15 C-3.63495936 9.33557626 -2.9445679 4.99296295 0 0 Z " fill="#777777" transform="translate(124,65)"/>
<path d="M0 0 C0.33 0.66 0.66 1.32 1 2 C2.32 2 3.64 2 5 2 C3.75023244 5.65316671 3.32901247 6.78065836 0 9 C0 6.03 0 3.06 0 0 Z " fill="#AAABAB" transform="translate(100,166)"/>
<path d="M0 0 C2 2 2 2 3 5 C3.99 5.66 4.98 6.32 6 7 C5.67 7.99 5.34 8.98 5 10 C4.34 10 3.68 10 3 10 C-1.09030544 4.85790173 -1.09030544 4.85790173 -0.75 1.625 C-0.5025 1.08875 -0.255 0.5525 0 0 Z " fill="#8F8F8F" transform="translate(77,157)"/>
<path d="M0 0 C0.66 0.33 1.32 0.66 2 1 C1.88648483 2.81325551 1.75887039 4.62563357 1.625 6.4375 C1.55539063 7.44683594 1.48578125 8.45617187 1.4140625 9.49609375 C1.27742188 10.32238281 1.14078125 11.14867188 1 12 C0.01 12.495 0.01 12.495 -1 13 C-0.67 8.71 -0.34 4.42 0 0 Z " fill="#676767" transform="translate(97,108)"/>
<path d="M0 0 C0.99 0.33 1.98 0.66 3 1 C1.125 6.75 1.125 6.75 0 9 C-0.99 8.67 -1.98 8.34 -3 8 C-2.01 5.36 -1.02 2.72 0 0 Z " fill="#848484" transform="translate(88,195)"/>
<path d="M0 0 C0 0.99 0 1.98 0 3 C-2.90600261 4.25664978 -4.79604584 5 -8 5 C-8 4.34 -8 3.68 -8 3 C-8.99 2.67 -9.98 2.34 -11 2 C-10.28972656 1.93941406 -9.57945313 1.87882813 -8.84765625 1.81640625 C-7.46900391 1.69072266 -7.46900391 1.69072266 -6.0625 1.5625 C-5.14597656 1.48128906 -4.22945313 1.40007812 -3.28515625 1.31640625 C-1.03840268 1.23955024 -1.03840268 1.23955024 0 0 Z " fill="#7E7E7E" transform="translate(127,159)"/>
<path d="M0 0 C0.33 1.32 0.66 2.64 1 4 C1.33 4.66 1.66 5.32 2 6 C2.04022391 8.3329866 2.04320247 10.66706666 2 13 C1.67 12.34 1.34 11.68 1 11 C0.01 10.67 -0.98 10.34 -2 10 C-1.34 6.7 -0.68 3.4 0 0 Z " fill="#A1A1A1" transform="translate(111,109)"/>
<path d="M0 0 C0.66 0 1.32 0 2 0 C1.34 3.96 0.68 7.92 0 12 C-0.66 11.67 -1.32 11.34 -2 11 C-1.85892253 9.54119891 -1.71197585 8.08296449 -1.5625 6.625 C-1.48128906 5.81289062 -1.40007812 5.00078125 -1.31640625 4.1640625 C-1 2 -1 2 0 0 Z " fill="#9D9D9D" transform="translate(111,65)"/>
<path d="M0 0 C1.96713413 2.95070119 2.65358161 4.53581611 3 8 C2.01 9.485 2.01 9.485 1 11 C1 9.02 1 7.04 1 5 C0.01 5 -0.98 5 -2 5 C-1.125 1.125 -1.125 1.125 0 0 Z " fill="#BFC0BF" transform="translate(101,174)"/>
<path d="M0 0 C0.33 0.66 0.66 1.32 1 2 C1.66 2.33 2.32 2.66 3 3 C2.67 3.33 2.34 3.66 2 4 C1.63239269 6.32817964 1.29758419 8.6618385 1 11 C-0.32 10.34 -1.64 9.68 -3 9 C-2.01 6.03 -1.02 3.06 0 0 Z " fill="#7D7C7D" transform="translate(98,115)"/>
<path d="M0 0 C0.33 0 0.66 0 1 0 C1.19466332 1.79090253 1.38051213 3.58276505 1.5625 5.375 C1.66691406 6.37273437 1.77132812 7.37046875 1.87890625 8.3984375 C2 11 2 11 1 13 C0.34 13 -0.32 13 -1 13 C-1.0272415 11.58344207 -1.04650467 10.16672955 -1.0625 8.75 C-1.07410156 7.96109375 -1.08570312 7.1721875 -1.09765625 6.359375 C-1.00385306 4.09308998 -0.63241063 2.1711105 0 0 Z " fill="#8B8B8B" transform="translate(100,104)"/>
<path d="M0 0 C1.32 0 2.64 0 4 0 C4 1.98 4 3.96 4 6 C3.01 6.33 2.02 6.66 1 7 C0.67 4.69 0.34 2.38 0 0 Z " fill="#DADCDB" transform="translate(105,149)"/>
<path d="M0 0 C0 0.99 0 1.98 0 3 C-2.97 3 -5.94 3 -9 3 C-9 2.34 -9 1.68 -9 1 C-5.846632 0.29925156 -3.27275026 0 0 0 Z " fill="#BFC0C0" transform="translate(167,144)"/>
<path d="M0 0 C0.99 0 1.98 0 3 0 C2.25 7.75 2.25 7.75 0 10 C0 6.7 0 3.4 0 0 Z " fill="#B6B7B7" transform="translate(111,131)"/>
<path d="M0 0 C2.97 0.33 5.94 0.66 9 1 C6.44931155 3.35448165 5.28982642 3.98327924 1.75 4.1875 C0.8425 4.125625 -0.065 4.06375 -1 4 C-0.67 2.68 -0.34 1.36 0 0 Z " fill="#ADADAD" transform="translate(131,148)"/>
<path d="M0 0 C0 0.66 0 1.32 0 2 C-0.99 2.495 -0.99 2.495 -2 3 C-1.34 3.66 -0.68 4.32 0 5 C-0.33 5.99 -0.66 6.98 -1 8 C-2.65 5.69 -4.3 3.38 -6 1 C-4 0 -4 0 0 0 Z " fill="#7F7F7F" transform="translate(159,45)"/>
<path d="M0 0 C1.485 0.99 1.485 0.99 3 2 C3.29296875 4.3828125 3.29296875 4.3828125 3.1875 7.125 C3.16042969 8.03507813 3.13335937 8.94515625 3.10546875 9.8828125 C3.07066406 10.58148438 3.03585938 11.28015625 3 12 C2.01 12.495 2.01 12.495 1 13 C1.03480469 12.06027344 1.03480469 12.06027344 1.0703125 11.1015625 C1.08835937 10.28429687 1.10640625 9.46703125 1.125 8.625 C1.14820312 7.81289062 1.17140625 7.00078125 1.1953125 6.1640625 C1.21370051 3.78657757 1.21370051 3.78657757 -1 2 C-0.67 1.34 -0.34 0.68 0 0 Z " fill="#7E7E7E" transform="translate(90,167)"/>
<path d="M0 0 C0.99 0 1.98 0 3 0 C3 0.66 3 1.32 3 2 C4.65 2.33 6.3 2.66 8 3 C8 3.33 8 3.66 8 4 C5.69 4 3.38 4 1 4 C0.67 2.68 0.34 1.36 0 0 Z " fill="#6E6E6E" transform="translate(81,167)"/>
<path d="M0 0 C-0.66 0.66 -1.32 1.32 -2 2 C-2.33 2.99 -2.66 3.98 -3 5 C-3.33 4.01 -3.66 3.02 -4 2 C-5.32 2.33 -6.64 2.66 -8 3 C-8 2.34 -8 1.68 -8 1 C-4.93251126 -0.86240388 -3.40254489 -1.2151946 0 0 Z " fill="#909090" transform="translate(121,156)"/>
<path d="M0 0 C3.3 0 6.6 0 10 0 C10 0.33 10 0.66 10 1 C8.906875 1.309375 7.81375 1.61875 6.6875 1.9375 C4.44592006 2.58337897 2.2130649 3.2623117 0 4 C0 2.68 0 1.36 0 0 Z " fill="#8E8E8E" transform="translate(113,151)"/>
<path d="M0 0 C0.66 0.66 1.32 1.32 2 2 C1.625 5.625 1.625 5.625 1 9 C0.01 9 -0.98 9 -2 9 C-1.34 6.03 -0.68 3.06 0 0 Z " fill="#9E9F9E" transform="translate(93,185)"/>
<path d="M0 0 C1.43088528 2.86177057 0.59991697 4.93375773 0 8 C-1.32 8 -2.64 8 -4 8 C-3.67 6.35 -3.34 4.7 -3 3 C-2.34 3 -1.68 3 -1 3 C-0.67 2.01 -0.34 1.02 0 0 Z " fill="#727272" transform="translate(94,137)"/>
<path d="M0 0 C3 3 3 3 3.29296875 5.04296875 C3.1953125 7.02864583 3.09765625 9.01432292 3 11 C2.01 11.495 2.01 11.495 1 12 C0.67 8.04 0.34 4.08 0 0 Z " fill="#818181" transform="translate(118,96)"/>
<path d="M0 0 C1.5 1.25 1.5 1.25 3 3 C3 4.32 3 5.64 3 7 C1.68 7.33 0.36 7.66 -1 8 C-0.67 5.36 -0.34 2.72 0 0 Z " fill="#E7E9E8" transform="translate(105,152)"/>
<path d="M0 0 C0.99 0 1.98 0 3 0 C2.6875 2.375 2.6875 2.375 2 5 C1.01 5.66 0.02 6.32 -1 7 C-0.67 4.69 -0.34 2.38 0 0 Z " fill="#C1C3C2" transform="translate(109,152)"/>
<path d="M0 0 C1.2077558 3.62326739 0.54311128 4.64146369 -1 8 C-1.66 7.67 -2.32 7.34 -3 7 C-2.25 2.25 -2.25 2.25 0 0 Z " fill="#757575" transform="translate(100,101)"/>
<path d="M0 0 C0.66 0 1.32 0 2 0 C2.33 1.98 2.66 3.96 3 6 C2.01 6.33 1.02 6.66 0 7 C0 4.69 0 2.38 0 0 Z " fill="#8B8B8B" transform="translate(129,72)"/>
<path d="M0 0 C0.6875 1.6875 0.6875 1.6875 1 4 C-0.4375 6.75 -0.4375 6.75 -2 9 C-3 7 -3 7 -2.125 3.9375 C-1 1 -1 1 0 0 Z " fill="#838383" transform="translate(127,61)"/>
<path d="M0 0 C2.25 0.25 2.25 0.25 4 1 C1.6875 3.0625 1.6875 3.0625 -1 5 C-1.99 4.67 -2.98 4.34 -4 4 C-2.25 1.9375 -2.25 1.9375 0 0 Z " fill="#EDEDED" transform="translate(126,42)"/>
<path d="M0 0 C0.66 0.33 1.32 0.66 2 1 C1.43628586 4.26954202 0.50037734 5.82575883 -2 8 C-1.125 1.125 -1.125 1.125 0 0 Z " fill="#B4B6B5" transform="translate(101,184)"/>
<path d="M0 0 C3.14737182 0.69941596 6.02588876 1.76078698 9 3 C6.21176345 4.0326802 5.1322726 4.04509293 2.25 3.0625 C1.5075 2.711875 0.765 2.36125 0 2 C0 1.34 0 0.68 0 0 Z " fill="#6D6D6D" transform="translate(149,151)"/>
<path d="M0 0 C0.66 0 1.32 0 2 0 C2 1.98 2 3.96 2 6 C1.01 6 0.02 6 -1 6 C-1.042721 4.33388095 -1.04063832 2.66617115 -1 1 C-0.67 0.67 -0.34 0.34 0 0 Z " fill="#A1A2A2" transform="translate(103,146)"/>
<path d="" fill="#808080" transform="translate(0,0)"/>
</svg>
